<svg width="74" height="60" viewBox="0 0 74 60" fill="none" xmlns="http://www.w3.org/2000/svg">
<path d="M63.0501 8.1306C62.7312 8.03104 62.3932 8.0151 62.0677 8.08429C61.7423 8.15348 61.4402 8.30552 61.1898 8.52611C52.379 16.2922 44.4881 15.8738 36.1483 15.4367C27.3805 14.9934 18.3242 14.5243 8.32402 23.3247C8.04785 23.5677 7.84513 23.8849 7.73891 24.24C7.6327 24.5952 7.62725 24.9741 7.72319 25.3337L15.4405 54.135C15.5278 54.461 15.6954 54.7597 15.9276 55.0031C16.1597 55.2464 16.4488 55.4264 16.7676 55.5261C17.0864 55.6258 17.4244 55.6419 17.7498 55.5729C18.0752 55.5039 18.3773 55.352 18.6277 55.1317C27.4386 47.3655 35.3294 47.7839 43.6811 48.2178C48.6313 48.4744 53.6744 48.737 58.92 47.3314C62.9654 46.2475 67.1384 44.1718 71.4867 40.3452C71.7628 40.1022 71.9655 39.785 72.0718 39.4299C72.178 39.0747 72.1834 38.6958 72.0875 38.3362L64.3702 9.53488C64.2855 9.2073 64.1198 8.90642 63.8888 8.66069C63.6578 8.41496 63.3692 8.23251 63.0501 8.1306ZM22.5172 42.6715C22.6538 43.181 22.5852 43.7232 22.3266 44.1786C22.068 44.6341 21.6406 44.9656 21.1383 45.1001C20.6361 45.2347 20.1002 45.1614 19.6485 44.8962C19.1968 44.6311 18.8663 44.1959 18.7298 43.6863L14.6115 28.3167C14.475 27.8072 14.5436 27.265 14.8022 26.8096C15.0608 26.3541 15.4882 26.0226 15.9905 25.8881C16.4927 25.7535 17.0286 25.8268 17.4803 26.092C17.932 26.3571 18.2624 26.7923 18.399 27.3019L22.5172 42.6715ZM41.9692 39.5185C40.471 39.9199 38.8858 39.8617 37.4138 39.351C35.9419 38.8404 34.6494 37.9003 33.6998 36.6497C32.7502 35.3991 32.1862 33.8942 32.079 32.3251C31.9719 30.7561 32.3264 29.1935 33.0978 27.8349C33.8692 26.4763 35.0228 25.3827 36.4127 24.6925C37.8026 24.0022 39.3665 23.7463 40.9064 23.9571C42.4464 24.1679 43.8934 24.8359 45.0644 25.8766C46.2353 26.9173 47.0777 28.2841 47.4849 29.804C48.0311 31.8421 47.7568 34.0106 46.7224 35.8325C45.688 37.6543 43.9782 38.9802 41.9692 39.5185ZM65.2086 35.3507C65.3452 35.8602 65.2766 36.4023 65.018 36.8578C64.7594 37.3132 64.3319 37.6447 63.8297 37.7793C63.3274 37.9139 62.7915 37.8405 62.3399 37.5754C61.8882 37.3103 61.5577 36.875 61.4212 36.3655L57.3029 20.9959C57.1664 20.4863 57.2349 19.9442 57.4935 19.4887C57.7522 19.0333 58.1796 18.7018 58.6818 18.5672C59.1841 18.4327 59.72 18.506 60.1717 18.7711C60.6234 19.0363 60.9538 19.4715 61.0903 19.981L65.2086 35.3507Z" fill="url(#paint0_linear_167_229)"/>
<g filter="url(#filter0_b_167_229)">
<path d="M56.6951 4.46154C56.3763 4.36197 56.0382 4.34603 55.7127 4.41522C55.3873 4.48441 55.0852 4.63646 54.8349 4.85704C46.024 12.6232 38.1331 12.2048 29.7933 11.7677C21.0255 11.3243 11.9692 10.8552 1.96904 19.6556C1.69286 19.8986 1.49015 20.2158 1.38393 20.5709C1.27772 20.9261 1.27227 21.305 1.36821 21.6647L9.08549 50.4659C9.17279 50.7919 9.34041 51.0907 9.57257 51.334C9.80474 51.5774 10.0938 51.7574 10.4126 51.857C10.7314 51.9567 11.0694 51.9728 11.3948 51.9038C11.7202 51.8348 12.0223 51.683 12.2727 51.4626C21.0836 43.6965 28.9745 44.1149 37.3262 44.5488C42.2763 44.8054 47.3194 45.0679 52.565 43.6624C56.6104 42.5784 60.7834 40.5027 65.1317 36.6762C65.4078 36.4331 65.6106 36.116 65.7168 35.7608C65.823 35.4057 65.8284 35.0267 65.7325 34.6671L58.0152 5.86582C57.9305 5.53824 57.7648 5.23735 57.5338 4.99162C57.3028 4.74589 57.0142 4.56345 56.6951 4.46154ZM16.1623 39.0024C16.2988 39.512 16.2302 40.0541 15.9716 40.5096C15.713 40.965 15.2856 41.2965 14.7833 41.4311C14.2811 41.5656 13.7452 41.4923 13.2935 41.2272C12.8418 40.962 12.5114 40.5268 12.3748 40.0173L8.25654 24.6476C8.12001 24.1381 8.18859 23.596 8.44719 23.1405C8.70579 22.6851 9.13322 22.3536 9.63547 22.219C10.1377 22.0844 10.6736 22.1578 11.1253 22.4229C11.577 22.688 11.9074 23.1232 12.044 23.6328L16.1623 39.0024ZM35.6142 35.8494C34.1161 36.2509 32.5308 36.1926 31.0588 35.6819C29.5869 35.1713 28.2944 34.2312 27.3448 32.9807C26.3952 31.7301 25.8312 30.2251 25.724 28.6561C25.6169 27.087 25.9714 25.5244 26.7428 24.1658C27.5142 22.8072 28.6678 21.7137 30.0577 21.0234C31.4477 20.3332 33.0115 20.0773 34.5515 20.288C36.0914 20.4988 37.5384 21.1668 38.7094 22.2075C39.8803 23.2483 40.7227 24.615 41.13 26.1349C41.6761 28.1731 41.4018 30.3416 40.3674 32.1634C39.333 33.9852 37.6232 35.3111 35.6142 35.8494ZM58.8536 31.6816C58.9902 32.1911 58.9216 32.7333 58.663 33.1887C58.4044 33.6442 57.977 33.9757 57.4747 34.1102C56.9725 34.2448 56.4366 34.1715 55.9849 33.9063C55.5332 33.6412 55.2027 33.206 55.0662 32.6964L50.9479 17.3268C50.8114 16.8173 50.88 16.2751 51.1386 15.8197C51.3972 15.3642 51.8246 15.0327 52.3269 14.8982C52.8291 14.7636 53.365 14.8369 53.8167 15.1021C54.2684 15.3672 54.5988 15.8024 54.7354 16.3119L58.8536 31.6816Z" fill="url(#paint1_linear_167_229)"/>
<path d="M56.6951 4.46154C56.3763 4.36197 56.0382 4.34603 55.7127 4.41522C55.3873 4.48441 55.0852 4.63646 54.8349 4.85704C46.024 12.6232 38.1331 12.2048 29.7933 11.7677C21.0255 11.3243 11.9692 10.8552 1.96904 19.6556C1.69286 19.8986 1.49015 20.2158 1.38393 20.5709C1.27772 20.9261 1.27227 21.305 1.36821 21.6647L9.08549 50.4659C9.17279 50.7919 9.34041 51.0907 9.57257 51.334C9.80474 51.5774 10.0938 51.7574 10.4126 51.857C10.7314 51.9567 11.0694 51.9728 11.3948 51.9038C11.7202 51.8348 12.0223 51.683 12.2727 51.4626C21.0836 43.6965 28.9745 44.1149 37.3262 44.5488C42.2763 44.8054 47.3194 45.0679 52.565 43.6624C56.6104 42.5784 60.7834 40.5027 65.1317 36.6762C65.4078 36.4331 65.6106 36.116 65.7168 35.7608C65.823 35.4057 65.8284 35.0267 65.7325 34.6671L58.0152 5.86582C57.9305 5.53824 57.7648 5.23735 57.5338 4.99162C57.3028 4.74589 57.0142 4.56345 56.6951 4.46154ZM16.1623 39.0024C16.2988 39.512 16.2302 40.0541 15.9716 40.5096C15.713 40.965 15.2856 41.2965 14.7833 41.4311C14.2811 41.5656 13.7452 41.4923 13.2935 41.2272C12.8418 40.962 12.5114 40.5268 12.3748 40.0173L8.25654 24.6476C8.12001 24.1381 8.18859 23.596 8.44719 23.1405C8.70579 22.6851 9.13322 22.3536 9.63547 22.219C10.1377 22.0844 10.6736 22.1578 11.1253 22.4229C11.577 22.688 11.9074 23.1232 12.044 23.6328L16.1623 39.0024ZM35.6142 35.8494C34.1161 36.2509 32.5308 36.1926 31.0588 35.6819C29.5869 35.1713 28.2944 34.2312 27.3448 32.9807C26.3952 31.7301 25.8312 30.2251 25.724 28.6561C25.6169 27.087 25.9714 25.5244 26.7428 24.1658C27.5142 22.8072 28.6678 21.7137 30.0577 21.0234C31.4477 20.3332 33.0115 20.0773 34.5515 20.288C36.0914 20.4988 37.5384 21.1668 38.7094 22.2075C39.8803 23.2483 40.7227 24.615 41.13 26.1349C41.6761 28.1731 41.4018 30.3416 40.3674 32.1634C39.333 33.9852 37.6232 35.3111 35.6142 35.8494ZM58.8536 31.6816C58.9902 32.1911 58.9216 32.7333 58.663 33.1887C58.4044 33.6442 57.977 33.9757 57.4747 34.1102C56.9725 34.2448 56.4366 34.1715 55.9849 33.9063C55.5332 33.6412 55.2027 33.206 55.0662 32.6964L50.9479 17.3268C50.8114 16.8173 50.88 16.2751 51.1386 15.8197C51.3972 15.3642 51.8246 15.0327 52.3269 14.8982C52.8291 14.7636 53.365 14.8369 53.8167 15.1021C54.2684 15.3672 54.5988 15.8024 54.7354 16.3119L58.8536 31.6816Z" stroke="black" stroke-opacity="0.9" stroke-linejoin="round"/>
</g>
<defs>
<filter id="filter0_b_167_229" x="-9.19995" y="-6.12708" width="85.5005" height="68.573" filterUnits="userSpaceOnUse" color-interpolation-filters="sRGB">
<feFlood flood-opacity="0" result="BackgroundImageFix"/>
<feGaussianBlur in="BackgroundImageFix" stdDeviation="5"/>
<feComposite in2="SourceAlpha" operator="in" result="effect1_backgroundBlur_167_229"/>
<feBlend mode="normal" in="SourceGraphic" in2="effect1_backgroundBlur_167_229" result="shape"/>
</filter>
<linearGradient id="paint0_linear_167_229" x1="6.3562" y1="20.2321" x2="55.054" y2="64.0792" gradientUnits="userSpaceOnUse">
<stop stop-color="#1E43EB"/>
<stop offset="1" stop-color="#0432FF"/>
</linearGradient>
<linearGradient id="paint1_linear_167_229" x1="-0.394982" y1="16.6692" x2="48.4184" y2="60.2796" gradientUnits="userSpaceOnUse">
<stop stop-color="white"/>
<stop offset="1" stop-color="white" stop-opacity="0.5"/>
</linearGradient>
</defs>
</svg>
