<svg width="77" height="61" viewBox="0 0 77 61" fill="none" xmlns="http://www.w3.org/2000/svg">
<path fill-rule="evenodd" clip-rule="evenodd" d="M19.3739 43.2746H16.411C15.3064 43.2746 14.4109 42.3792 14.4109 41.2746V40.3196H8.96094C7.85637 40.3196 6.96094 39.4242 6.96094 38.3196V29.0241C6.96094 27.9195 7.85637 27.0241 8.96094 27.0241H14.4109V24.5927C14.4109 23.4881 15.3064 22.5927 16.4109 22.5927H35.3697L67.8736 8.55261C69.194 7.98228 70.6667 8.95036 70.6667 10.3886V27.0241H72.5013C74.9866 27.0241 77.0013 29.0388 77.0013 31.5241V35.8196C77.0013 38.3049 74.9866 40.3196 72.5013 40.3196H70.6667V55.478C70.6667 56.9163 69.194 57.8843 67.8736 57.314L36.5266 43.7736L35.9565 59.076C35.9164 60.1509 35.0334 61.0016 33.9579 61.0016H26.7565C25.897 61.0016 25.1336 60.4523 24.8603 59.6374L19.3739 43.2746Z" fill="url(#paint0_linear_167_213)"/>
<g filter="url(#filter0_b_167_213)">
<path fill-rule="evenodd" clip-rule="evenodd" d="M13.4129 35.8881H10.45C9.34544 35.8881 8.45001 34.9927 8.45001 33.8881V32.9331H3C1.89543 32.9331 1 32.0377 1 30.9331V21.6376C1 20.5331 1.89543 19.6376 3 19.6376H8.45001V17.2062C8.45001 16.1017 9.34544 15.2062 10.45 15.2062H29.4088L61.9127 1.16614C63.2331 0.595804 64.7058 1.56389 64.7058 3.00217V19.6376H66.5404C69.0256 19.6376 71.0404 21.6523 71.0404 24.1376V28.4331C71.0404 30.9184 69.0256 32.9331 66.5404 32.9331H64.7058V48.0915C64.7058 49.5298 63.2331 50.4979 61.9127 49.9275L30.5656 36.3871L29.9955 51.6895C29.9555 52.7644 29.0725 53.6151 27.9969 53.6151H20.7956C19.9361 53.6151 19.1726 53.0659 18.8994 52.2509L13.4129 35.8881Z" fill="url(#paint1_linear_167_213)"/>
<path d="M13.4129 35.8881L13.887 35.7292C13.8187 35.5254 13.6278 35.3881 13.4129 35.3881V35.8881ZM8.45001 32.9331H8.95001C8.95001 32.657 8.72615 32.4331 8.45001 32.4331V32.9331ZM8.45001 19.6376V20.1376C8.72615 20.1376 8.95001 19.9138 8.95001 19.6376H8.45001ZM29.4088 15.2062V15.7062C29.477 15.7062 29.5445 15.6923 29.6071 15.6652L29.4088 15.2062ZM61.9127 1.16614L62.111 1.62515V1.62515L61.9127 1.16614ZM64.7058 19.6376H64.2058C64.2058 19.9138 64.4296 20.1376 64.7058 20.1376V19.6376ZM64.7058 32.9331V32.4331C64.4296 32.4331 64.2058 32.657 64.2058 32.9331H64.7058ZM61.9127 49.9275L61.7144 50.3865L61.9127 49.9275ZM30.5656 36.3871L30.7639 35.9281C30.6124 35.8627 30.4384 35.8762 30.2988 35.9643C30.1592 36.0523 30.0721 36.2036 30.066 36.3685L30.5656 36.3871ZM29.9955 51.6895L29.4959 51.6709L29.9955 51.6895ZM18.8994 52.2509L19.3734 52.0919L18.8994 52.2509ZM13.4129 35.3881H10.45V36.3881H13.4129V35.3881ZM10.45 35.3881C9.62158 35.3881 8.95001 34.7165 8.95001 33.8881H7.95001C7.95001 35.2688 9.0693 36.3881 10.45 36.3881V35.3881ZM8.95001 33.8881V32.9331H7.95001V33.8881H8.95001ZM8.45001 32.4331H3V33.4331H8.45001V32.4331ZM3 32.4331C2.17157 32.4331 1.5 31.7615 1.5 30.9331H0.5C0.5 32.3138 1.61929 33.4331 3 33.4331V32.4331ZM1.5 30.9331V21.6376H0.5V30.9331H1.5ZM1.5 21.6376C1.5 20.8092 2.17157 20.1376 3 20.1376V19.1376C1.61929 19.1376 0.5 20.2569 0.5 21.6376H1.5ZM3 20.1376H8.45001V19.1376H3V20.1376ZM8.95001 19.6376V17.2062H7.95001V19.6376H8.95001ZM8.95001 17.2062C8.95001 16.3778 9.62158 15.7062 10.45 15.7062V14.7062C9.0693 14.7062 7.95001 15.8255 7.95001 17.2062H8.95001ZM10.45 15.7062H29.4088V14.7062H10.45V15.7062ZM29.6071 15.6652L62.111 1.62515L61.7144 0.707131L29.2105 14.7472L29.6071 15.6652ZM62.111 1.62515C63.1012 1.1974 64.2058 1.92346 64.2058 3.00217H65.2058C65.2058 1.20432 63.3649 -0.00578892 61.7144 0.707131L62.111 1.62515ZM64.2058 3.00217V19.6376H65.2058V3.00217H64.2058ZM64.7058 20.1376H66.5404V19.1376H64.7058V20.1376ZM66.5404 20.1376C68.7495 20.1376 70.5404 21.9285 70.5404 24.1376H71.5404C71.5404 21.3762 69.3018 19.1376 66.5404 19.1376V20.1376ZM70.5404 24.1376V28.4331H71.5404V24.1376H70.5404ZM70.5404 28.4331C70.5404 30.6422 68.7495 32.4331 66.5404 32.4331V33.4331C69.3018 33.4331 71.5404 31.1945 71.5404 28.4331H70.5404ZM66.5404 32.4331H64.7058V33.4331H66.5404V32.4331ZM64.2058 32.9331V48.0915H65.2058V32.9331H64.2058ZM64.2058 48.0915C64.2058 49.1702 63.1012 49.8963 62.111 49.4685L61.7144 50.3865C63.3649 51.0995 65.2058 49.8893 65.2058 48.0915H64.2058ZM62.111 49.4685L30.7639 35.9281L30.3674 36.8461L61.7144 50.3865L62.111 49.4685ZM30.4952 51.7082L31.0653 36.4057L30.066 36.3685L29.4959 51.6709L30.4952 51.7082ZM27.9969 54.1151C29.3414 54.1151 30.4451 53.0517 30.4952 51.7082L29.4959 51.6709C29.4658 52.4771 28.8036 53.1151 27.9969 53.1151V54.1151ZM20.7956 54.1151H27.9969V53.1151H20.7956V54.1151ZM18.4253 52.4098C18.7669 53.4286 19.7212 54.1151 20.7956 54.1151V53.1151C20.1509 53.1151 19.5784 52.7032 19.3734 52.0919L18.4253 52.4098ZM12.9389 36.0471L18.4253 52.4098L19.3734 52.0919L13.887 35.7292L12.9389 36.0471Z" fill="black" fill-opacity="0.9"/>
</g>
<defs>
<filter id="filter0_b_167_213" x="-9.5" y="-9.50049" width="91.0403" height="73.6156" filterUnits="userSpaceOnUse" color-interpolation-filters="sRGB">
<feFlood flood-opacity="0" result="BackgroundImageFix"/>
<feGaussianBlur in="BackgroundImageFix" stdDeviation="5"/>
<feComposite in2="SourceAlpha" operator="in" result="effect1_backgroundBlur_167_213"/>
<feBlend mode="normal" in="SourceGraphic" in2="effect1_backgroundBlur_167_213" result="shape"/>
</filter>
<linearGradient id="paint0_linear_167_213" x1="6.96094" y1="8.38647" x2="55.99" y2="76.3721" gradientUnits="userSpaceOnUse">
<stop stop-color="#1E43EB"/>
<stop offset="1" stop-color="#0432FF"/>
</linearGradient>
<linearGradient id="paint1_linear_167_213" x1="0.51146" y1="1" x2="49.74" y2="68.6875" gradientUnits="userSpaceOnUse">
<stop stop-color="white"/>
<stop offset="1" stop-color="white" stop-opacity="0.5"/>
</linearGradient>
</defs>
</svg>
