<svg width="52" height="61" viewBox="0 0 52 61" fill="none" xmlns="http://www.w3.org/2000/svg">
<path fill-rule="evenodd" clip-rule="evenodd" d="M28.1557 5.85459C31.2232 5.79331 34.2719 6.35918 37.1233 7.5191C39.9748 8.67901 42.5718 10.4097 44.7625 12.6099C46.9532 14.8101 48.6935 17.4357 49.8818 20.333C51.07 23.2303 51.6822 26.3413 51.6827 29.4839V45.2419C51.6827 46.8092 51.0748 48.3122 49.9929 49.4204C48.9109 50.5286 47.4435 51.1512 45.9134 51.1512H40.1442V59.0303C40.1442 59.5527 39.9416 60.0537 39.5809 60.4231C39.2203 60.7925 38.7311 61 38.2211 61H18.9903C18.4803 61 17.9911 60.7925 17.6305 60.4231C17.2698 60.0537 17.0672 59.5527 17.0672 59.0303V49.9576C12.7012 47.3756 9.28071 43.4002 7.32874 38.6391C5.37676 33.878 5.00068 28.5931 6.25797 23.5924C7.51526 18.5917 10.3368 14.1503 14.2911 10.9471C18.2455 7.74395 23.1152 5.9553 28.1557 5.85459ZM15.3749 34.2507C14.2497 31.0029 14.2628 27.4554 15.412 24.2164C16.5611 20.9775 18.7746 18.249 21.673 16.4989C24.5713 14.7488 27.9739 14.0861 31.2971 14.6246C34.6202 15.163 37.657 16.869 39.8865 19.4499C41.0173 20.7657 40.7519 22.7276 39.4826 23.9015C34.6903 28.3414 26.798 34.0301 19.048 36.1338C17.5172 36.5514 15.9057 35.7753 15.3749 34.2507Z" fill="url(#paint0_linear_167_189)"/>
<g filter="url(#filter0_b_167_189)">
<path fill-rule="evenodd" clip-rule="evenodd" d="M23.6943 1.00449C26.7618 0.943214 29.8104 1.50908 32.6619 2.669C35.5134 3.82892 38.1104 5.55959 40.3011 7.7598C42.4918 9.96 44.2321 12.5856 45.4203 15.4829C46.6086 18.3802 47.2208 21.4912 47.2212 24.6338V40.3918C47.2212 41.9591 46.6134 43.4621 45.5315 44.5703C44.4495 45.6785 42.9821 46.3011 41.452 46.3011H35.6827V54.1802C35.6827 54.7026 35.4801 55.2036 35.1195 55.573C34.7588 55.9424 34.2697 56.1499 33.7597 56.1499H14.5289C14.0188 56.1499 13.5297 55.9424 13.1691 55.573C12.8084 55.2036 12.6058 54.7026 12.6058 54.1802V45.1074C8.23974 42.5255 4.81928 38.5501 2.86731 33.789C0.915338 29.0279 0.539252 23.743 1.79654 18.7423C3.05384 13.7416 5.87533 9.30017 9.8297 6.09701C13.7841 2.89386 18.6537 1.10521 23.6943 1.00449ZM10.9135 29.4006C9.7883 26.1528 9.8014 22.6053 10.9505 19.3663C12.0997 16.1274 14.3132 13.3989 17.2116 11.6488C20.1099 9.8987 23.5125 9.23603 26.8356 9.77446C30.1588 10.3129 33.1956 12.0189 35.4251 14.5998C36.5558 15.9156 36.2904 17.8775 35.0212 19.0515C30.2289 23.4913 22.3366 29.18 14.5866 31.2837C13.0558 31.7013 11.4443 30.9252 10.9135 29.4006Z" fill="url(#paint1_linear_167_189)"/>
<path fill-rule="evenodd" clip-rule="evenodd" d="M23.6943 1.00449C26.7618 0.943214 29.8104 1.50908 32.6619 2.669C35.5134 3.82892 38.1104 5.55959 40.3011 7.7598C42.4918 9.96 44.2321 12.5856 45.4203 15.4829C46.6086 18.3802 47.2208 21.4912 47.2212 24.6338V40.3918C47.2212 41.9591 46.6134 43.4621 45.5315 44.5703C44.4495 45.6785 42.9821 46.3011 41.452 46.3011H35.6827V54.1802C35.6827 54.7026 35.4801 55.2036 35.1195 55.573C34.7588 55.9424 34.2697 56.1499 33.7597 56.1499H14.5289C14.0188 56.1499 13.5297 55.9424 13.1691 55.573C12.8084 55.2036 12.6058 54.7026 12.6058 54.1802V45.1074C8.23974 42.5255 4.81928 38.5501 2.86731 33.789C0.915338 29.0279 0.539252 23.743 1.79654 18.7423C3.05384 13.7416 5.87533 9.30017 9.8297 6.09701C13.7841 2.89386 18.6537 1.10521 23.6943 1.00449ZM10.9135 29.4006C9.7883 26.1528 9.8014 22.6053 10.9505 19.3663C12.0997 16.1274 14.3132 13.3989 17.2116 11.6488C20.1099 9.8987 23.5125 9.23603 26.8356 9.77446C30.1588 10.3129 33.1956 12.0189 35.4251 14.5998C36.5558 15.9156 36.2904 17.8775 35.0212 19.0515C30.2289 23.4913 22.3366 29.18 14.5866 31.2837C13.0558 31.7013 11.4443 30.9252 10.9135 29.4006Z" stroke="black" stroke-opacity="0.9" stroke-linejoin="round"/>
</g>
<defs>
<filter id="filter0_b_167_189" x="-9.43262" y="-9.5" width="67.1538" height="76.1499" filterUnits="userSpaceOnUse" color-interpolation-filters="sRGB">
<feFlood flood-opacity="0" result="BackgroundImageFix"/>
<feGaussianBlur in="BackgroundImageFix" stdDeviation="5"/>
<feComposite in2="SourceAlpha" operator="in" result="effect1_backgroundBlur_167_189"/>
<feBlend mode="normal" in="SourceGraphic" in2="effect1_backgroundBlur_167_189" result="shape"/>
</filter>
<linearGradient id="paint0_linear_167_189" x1="5.52881" y1="5.8501" x2="59.1839" y2="52.6235" gradientUnits="userSpaceOnUse">
<stop stop-color="#1E43EB"/>
<stop offset="1" stop-color="#0432FF"/>
</linearGradient>
<linearGradient id="paint1_linear_167_189" x1="0.745454" y1="1" x2="54.4131" y2="47.3905" gradientUnits="userSpaceOnUse">
<stop stop-color="white"/>
<stop offset="1" stop-color="white" stop-opacity="0.5"/>
</linearGradient>
</defs>
</svg>
