<svg width="70" height="63" viewBox="0 0 70 63" fill="none" xmlns="http://www.w3.org/2000/svg">
<path d="M40.4661 8V13H44.4061C45.6222 13 46.8182 13.32 47.8742 13.924L53.0342 16.868C53.1889 16.956 53.3542 17 53.5303 17H62.4664C63.262 17 64.0251 17.3161 64.5877 17.8787C65.1503 18.4413 65.4664 19.2044 65.4664 20C65.4664 20.7956 65.1503 21.5587 64.5877 22.1213C64.0251 22.6839 63.262 23 62.4664 23H60.7583L69.2024 41.768C69.452 42.3232 69.5267 42.9413 69.4167 43.54C69.3066 44.1387 69.0171 44.6898 68.5864 45.12L66.4664 43L68.5824 45.124L68.5784 45.132L68.5704 45.14L68.5464 45.164L68.5224 45.184L68.4824 45.224L68.3024 45.384C67.4571 46.0907 66.5424 46.6907 65.5584 47.184C63.6904 48.12 60.9863 49 57.4663 49C54.6643 49.0328 51.8934 48.4109 49.3742 47.184C48.3921 46.6936 47.4711 46.0895 46.6302 45.384L46.4502 45.224L46.3862 45.164L46.3622 45.14L46.3462 45.124V45.12C45.9155 44.6898 45.626 44.1387 45.5159 43.54C45.4059 42.9413 45.4806 42.3232 45.7302 41.768L54.1783 23H53.5303C52.3102 23 51.1142 22.684 50.0582 22.076L44.8982 19.132C44.7471 19.0456 44.5761 19.0001 44.4021 19H40.4661V57H50.4662C51.2619 57 52.0249 57.3161 52.5876 57.8787C53.1502 58.4413 53.4663 59.2043 53.4663 60C53.4663 60.7957 53.1502 61.5587 52.5876 62.1213C52.0249 62.6839 51.2619 63 50.4662 63H24.4659C23.6703 63 22.9072 62.6839 22.3446 62.1213C21.782 61.5587 21.4659 60.7957 21.4659 60C21.4659 59.2043 21.782 58.4413 22.3446 57.8787C22.9072 57.3161 23.6703 57 24.4659 57H34.466V19H30.53C30.356 19.0001 30.185 19.0456 30.034 19.132L24.8779 22.08C23.8179 22.68 22.6219 23 21.4019 23H20.7539L29.202 41.768C29.4515 42.3232 29.5262 42.9413 29.4162 43.54C29.3062 44.1387 29.0166 44.6898 28.586 45.12L26.4659 43L28.582 45.124L28.578 45.132L28.57 45.14L28.546 45.164L28.482 45.224L28.302 45.384C27.4566 46.0907 26.5419 46.6907 25.5579 47.184C23.6899 48.12 20.9859 49 17.4658 49C14.6639 49.0328 11.893 48.4109 9.37374 47.184C8.39166 46.6936 7.47065 46.0895 6.6297 45.384L6.4497 45.224L6.3857 45.164L6.3617 45.14L6.3457 45.124V45.12C5.91506 44.6898 5.6255 44.1387 5.51548 43.54C5.40545 42.9413 5.48016 42.3232 5.72969 41.768L14.1778 23H12.4658C11.6701 23 10.907 22.6839 10.3444 22.1213C9.78181 21.5587 9.46574 20.7956 9.46574 20C9.46574 19.2044 9.78181 18.4413 10.3444 17.8787C10.907 17.3161 11.6701 17 12.4658 17H21.4019C21.5772 17.0006 21.7497 16.9551 21.9019 16.868L27.0539 13.92C28.114 13.32 29.31 13 30.53 13H34.466V8C34.466 7.20435 34.7821 6.44129 35.3447 5.87868C35.9073 5.31607 36.6704 5 37.4661 5C38.2617 5 39.0248 5.31607 39.5874 5.87868C40.15 6.44129 40.4661 7.20435 40.4661 8ZM52.2462 41.908C53.3862 42.448 55.1183 43 57.4663 43C59.8143 43 61.5463 42.448 62.6864 41.908L57.4663 30.308L52.2462 41.908ZM12.2458 41.908C13.3858 42.448 15.1178 43 17.4658 43C19.8139 43 21.5459 42.448 22.6859 41.908L17.4658 30.308L12.2458 41.908Z" fill="url(#paint0_linear_167_201)"/>
<g filter="url(#filter0_b_167_201)">
<path d="M36.4661 4V9H40.4061C41.6222 9 42.8182 9.32 43.8742 9.924L49.0342 12.868C49.1889 12.956 49.3542 13 49.5303 13H58.4664C59.262 13 60.0251 13.3161 60.5877 13.8787C61.1503 14.4413 61.4664 15.2044 61.4664 16C61.4664 16.7956 61.1503 17.5587 60.5877 18.1213C60.0251 18.6839 59.262 19 58.4664 19H56.7583L65.2024 37.768C65.452 38.3232 65.5267 38.9413 65.4167 39.54C65.3066 40.1387 65.0171 40.6898 64.5864 41.12L64.5224 41.184L64.5824 41.124L64.5784 41.132L64.5704 41.14L64.5464 41.164L64.5224 41.184L64.4824 41.224L64.3024 41.384C63.4571 42.0907 62.5424 42.6907 61.5584 43.184C59.6904 44.12 56.9863 45 53.4663 45C50.6643 45.0328 47.8934 44.4109 45.3742 43.184C44.3921 42.6936 43.4711 42.0895 42.6302 41.384L42.4502 41.224L42.3862 41.164L42.3622 41.14L42.3462 41.124V41.12C41.9155 40.6898 41.626 40.1387 41.5159 39.54C41.4059 38.9413 41.4806 38.3232 41.7302 37.768L50.1783 19H49.5303C48.3102 19 47.1142 18.684 46.0582 18.076L40.8982 15.132C40.7471 15.0456 40.5761 15.0001 40.4021 15H36.4661V53H46.4662C47.2619 53 48.0249 53.3161 48.5876 53.8787C49.1502 54.4413 49.4663 55.2043 49.4663 56C49.4663 56.7957 49.1502 57.5587 48.5876 58.1213C48.0249 58.6839 47.2619 59 46.4662 59H20.4659C19.6703 59 18.9072 58.6839 18.3446 58.1213C17.7819 57.5587 17.4659 56.7957 17.4659 56C17.4659 55.2043 17.7819 54.4413 18.3446 53.8787C18.9072 53.3161 19.6703 53 20.4659 53H30.466V15H26.53C26.356 15.0001 26.185 15.0456 26.034 15.132L20.8779 18.08C19.8179 18.68 18.6219 19 17.4019 19H16.7539L25.202 37.768C25.4515 38.3232 25.5262 38.9413 25.4162 39.54C25.3062 40.1387 25.0166 40.6898 24.586 41.12L24.392 41.304L24.582 41.124L24.578 41.132L24.57 41.14L24.546 41.164L24.482 41.224L24.302 41.384C23.4566 42.0907 22.5419 42.6907 21.5579 43.184C19.6899 44.12 16.9859 45 13.4658 45C10.6639 45.0328 7.89298 44.4109 5.37374 43.184C4.39166 42.6936 3.47065 42.0895 2.6297 41.384L2.4497 41.224L2.3857 41.164L2.3617 41.14L2.3457 41.124V41.12C1.91506 40.6898 1.6255 40.1387 1.51548 39.54C1.40545 38.9413 1.48016 38.3232 1.72969 37.768L10.1778 19H8.46577C7.67011 19 6.90704 18.6839 6.34443 18.1213C5.78181 17.5587 5.46574 16.7956 5.46574 16C5.46574 15.2044 5.78181 14.4413 6.34443 13.8787C6.90704 13.3161 7.67011 13 8.46577 13H17.4019C17.5772 13.0006 17.7497 12.9551 17.9019 12.868L23.0539 9.92C24.114 9.32 25.31 9 26.53 9H30.466V4C30.466 3.20435 30.7821 2.44129 31.3447 1.87868C31.9073 1.31607 32.6704 1 33.4661 1C34.2617 1 35.0248 1.31607 35.5874 1.87868C36.15 2.44129 36.4661 3.20435 36.4661 4ZM48.2462 37.908C49.3862 38.448 51.1183 39 53.4663 39C55.8143 39 57.5463 38.448 58.6864 37.908L53.4663 26.308L48.2462 37.908ZM8.24577 37.908C9.38578 38.448 11.1178 39 13.4658 39C15.8139 39 17.5459 38.448 18.6859 37.908L13.4658 26.308L8.24577 37.908Z" fill="url(#paint1_linear_167_201)"/>
<path d="M64.5224 41.184L64.5864 41.12C65.0171 40.6897 65.3066 40.1387 65.4167 39.54C65.5267 38.9413 65.452 38.3232 65.2024 37.768L56.7583 19H58.4664C59.262 19 60.0251 18.6839 60.5877 18.1213C61.1503 17.5587 61.4664 16.7956 61.4664 16C61.4664 15.2044 61.1503 14.4413 60.5877 13.8787C60.0251 13.3161 59.262 13 58.4664 13H49.5303C49.3542 13 49.1889 12.956 49.0342 12.868L43.8742 9.924C42.8182 9.32 41.6222 9 40.4061 9H36.4661V4C36.4661 3.20435 36.15 2.44129 35.5874 1.87868C35.0248 1.31607 34.2617 1 33.4661 1C32.6704 1 31.9073 1.31607 31.3447 1.87868C30.7821 2.44129 30.466 3.20435 30.466 4V9H26.53C25.31 9 24.114 9.32 23.0539 9.92L17.9019 12.868C17.7497 12.9551 17.5772 13.0006 17.4019 13H8.46577C7.67011 13 6.90704 13.3161 6.34443 13.8787C5.78181 14.4413 5.46574 15.2044 5.46574 16C5.46574 16.7956 5.78181 17.5587 6.34443 18.1213C6.90704 18.6839 7.67011 19 8.46577 19H10.1778L1.72969 37.768C1.48016 38.3232 1.40545 38.9413 1.51548 39.54C1.6255 40.1387 1.91506 40.6897 2.3457 41.12V41.124L2.3617 41.14L2.3857 41.164L2.4497 41.224L2.6297 41.384C3.47065 42.0895 4.39166 42.6936 5.37374 43.184C7.89298 44.4109 10.6639 45.0328 13.4658 45C16.9859 45 19.6899 44.12 21.5579 43.184C22.5419 42.6907 23.4566 42.0907 24.302 41.384L24.482 41.224L24.546 41.164L24.57 41.14L24.578 41.132L24.582 41.124L24.392 41.304L24.586 41.12C25.0166 40.6897 25.3062 40.1387 25.4162 39.54C25.5262 38.9413 25.4515 38.3232 25.202 37.768L16.7539 19H17.4019C18.6219 19 19.8179 18.68 20.8779 18.08L26.034 15.132C26.185 15.0456 26.356 15.0001 26.53 15H30.466V53H20.4659C19.6703 53 18.9072 53.3161 18.3446 53.8787C17.782 54.4413 17.4659 55.2044 17.4659 56C17.4659 56.7956 17.782 57.5587 18.3446 58.1213C18.9072 58.6839 19.6703 59 20.4659 59H46.4662C47.2619 59 48.0249 58.6839 48.5876 58.1213C49.1502 57.5587 49.4663 56.7956 49.4663 56C49.4663 55.2044 49.1502 54.4413 48.5876 53.8787C48.0249 53.3161 47.2619 53 46.4662 53H36.4661V15H40.4021C40.5761 15.0001 40.7471 15.0456 40.8982 15.132L46.0582 18.076C47.1142 18.684 48.3102 19 49.5303 19H50.1783L41.7302 37.768C41.4806 38.3232 41.4059 38.9413 41.5159 39.54C41.626 40.1387 41.9155 40.6897 42.3462 41.12V41.124L42.3622 41.14L42.3862 41.164L42.4502 41.224L42.6302 41.384C43.4711 42.0895 44.3921 42.6936 45.3742 43.184C47.8934 44.4109 50.6643 45.0328 53.4663 45C56.9863 45 59.6904 44.12 61.5584 43.184C62.5424 42.6907 63.4571 42.0907 64.3024 41.384L64.4824 41.224L64.5224 41.184ZM64.5224 41.184L64.5824 41.124L64.5784 41.132L64.5704 41.14L64.5464 41.164L64.5224 41.184ZM48.2462 37.908C49.3862 38.448 51.1183 39 53.4663 39C55.8143 39 57.5463 38.448 58.6864 37.908L53.4663 26.308L48.2462 37.908ZM8.24577 37.908C9.38578 38.448 11.1178 39 13.4658 39C15.8139 39 17.5459 38.448 18.6859 37.908L13.4658 26.308L8.24577 37.908Z" stroke="black" stroke-opacity="0.9" stroke-linejoin="round"/>
</g>
<defs>
<filter id="filter0_b_167_201" x="-9.03394" y="-9.5" width="85" height="79" filterUnits="userSpaceOnUse" color-interpolation-filters="sRGB">
<feFlood flood-opacity="0" result="BackgroundImageFix"/>
<feGaussianBlur in="BackgroundImageFix" stdDeviation="5"/>
<feComposite in2="SourceAlpha" operator="in" result="effect1_backgroundBlur_167_201"/>
<feBlend mode="normal" in="SourceGraphic" in2="effect1_backgroundBlur_167_201" result="shape"/>
</filter>
<linearGradient id="paint0_linear_167_201" x1="5.46606" y1="5" x2="61.8785" y2="69.8414" gradientUnits="userSpaceOnUse">
<stop stop-color="#1E43EB"/>
<stop offset="1" stop-color="#0432FF"/>
</linearGradient>
<linearGradient id="paint1_linear_167_201" x1="1.01966" y1="1" x2="57.5765" y2="65.4602" gradientUnits="userSpaceOnUse">
<stop stop-color="white"/>
<stop offset="1" stop-color="white" stop-opacity="0.5"/>
</linearGradient>
</defs>
</svg>
