<svg width="44" height="61" viewBox="0 0 44 61" fill="none" xmlns="http://www.w3.org/2000/svg">
<path fill-rule="evenodd" clip-rule="evenodd" d="M15.5 7C15.2114 7.00008 14.9266 7.0669 14.6672 7.19537C14.4079 7.32385 14.1807 7.51062 14.0031 7.7415C13.8255 7.97237 13.702 8.24129 13.642 8.52784C13.582 8.81439 13.5872 9.11105 13.657 9.39529L14.018 10.8571H7.9C7.39609 10.8571 6.91282 11.0603 6.5565 11.422C6.20018 11.7837 6 12.2742 6 12.7857V59.0714C6 59.5829 6.20018 60.0735 6.5565 60.4351C6.91282 60.7968 7.39609 61 7.9 61H42.1C42.6039 61 43.0872 60.7968 43.4435 60.4351C43.7998 60.0735 44 59.5829 44 59.0714V12.7857C44 12.2742 43.7998 11.7837 43.4435 11.422C43.0872 11.0603 42.6039 10.8571 42.1 10.8571H35.982L36.343 9.39529C36.4128 9.11105 36.418 8.81439 36.358 8.52784C36.298 8.24129 36.1745 7.97237 35.9969 7.7415C35.8193 7.51062 35.5921 7.32385 35.3328 7.19537C35.0734 7.0669 34.7886 7.00008 34.5 7H15.5ZM17.932 10.8571H32.068L31.118 14.7143H18.882L17.932 10.8571ZM26.9 28.2143V30.1429H13.6V34H26.9V35.9286H30.7V34H36.4V30.1429H30.7V28.2143H26.9ZM19.3 39.7857V41.7143H13.6V45.5714H19.3V47.5H23.1V45.5714H36.4V41.7143H23.1V39.7857H19.3Z" fill="url(#paint0_linear_167_207)"/>
<g filter="url(#filter0_b_167_207)">
<path fill-rule="evenodd" clip-rule="evenodd" d="M10.5 1C10.2114 1.00008 9.9266 1.0669 9.66723 1.19537C9.40786 1.32385 9.18074 1.51062 9.00309 1.7415C8.82545 1.97237 8.70196 2.24129 8.64199 2.52784C8.58202 2.81439 8.58716 3.11105 8.657 3.39529L9.018 4.85714H2.9C2.39609 4.85714 1.91282 5.06033 1.5565 5.42201C1.20018 5.78369 1 6.27423 1 6.78571V53.0714C1 53.5829 1.20018 54.0735 1.5565 54.4351C1.91282 54.7968 2.39609 55 2.9 55H37.1C37.6039 55 38.0872 54.7968 38.4435 54.4351C38.7998 54.0735 39 53.5829 39 53.0714V6.78571C39 6.27423 38.7998 5.78369 38.4435 5.42201C38.0872 5.06033 37.6039 4.85714 37.1 4.85714H30.982L31.343 3.39529C31.4128 3.11105 31.418 2.81439 31.358 2.52784C31.298 2.24129 31.1745 1.97237 30.9969 1.7415C30.8193 1.51062 30.5921 1.32385 30.3328 1.19537C30.0734 1.0669 29.7886 1.00008 29.5 1H10.5ZM12.932 4.85714H27.068L26.118 8.71429H13.882L12.932 4.85714ZM21.9 22.2143V24.1429H8.6V28H21.9V29.9286H25.7V28H31.4V24.1429H25.7V22.2143H21.9ZM14.3 33.7857V35.7143H8.6V39.5714H14.3V41.5H18.1V39.5714H31.4V35.7143H18.1V33.7857H14.3Z" fill="url(#paint1_linear_167_207)"/>
<path fill-rule="evenodd" clip-rule="evenodd" d="M10.5 1C10.2114 1.00008 9.9266 1.0669 9.66723 1.19537C9.40786 1.32385 9.18074 1.51062 9.00309 1.7415C8.82545 1.97237 8.70196 2.24129 8.64199 2.52784C8.58202 2.81439 8.58716 3.11105 8.657 3.39529L9.018 4.85714H2.9C2.39609 4.85714 1.91282 5.06033 1.5565 5.42201C1.20018 5.78369 1 6.27423 1 6.78571V53.0714C1 53.5829 1.20018 54.0735 1.5565 54.4351C1.91282 54.7968 2.39609 55 2.9 55H37.1C37.6039 55 38.0872 54.7968 38.4435 54.4351C38.7998 54.0735 39 53.5829 39 53.0714V6.78571C39 6.27423 38.7998 5.78369 38.4435 5.42201C38.0872 5.06033 37.6039 4.85714 37.1 4.85714H30.982L31.343 3.39529C31.4128 3.11105 31.418 2.81439 31.358 2.52784C31.298 2.24129 31.1745 1.97237 30.9969 1.7415C30.8193 1.51062 30.5921 1.32385 30.3328 1.19537C30.0734 1.0669 29.7886 1.00008 29.5 1H10.5ZM12.932 4.85714H27.068L26.118 8.71429H13.882L12.932 4.85714ZM21.9 22.2143V24.1429H8.6V28H21.9V29.9286H25.7V28H31.4V24.1429H25.7V22.2143H21.9ZM14.3 33.7857V35.7143H8.6V39.5714H14.3V41.5H18.1V39.5714H31.4V35.7143H18.1V33.7857H14.3Z" stroke="black" stroke-opacity="0.9" stroke-linejoin="round"/>
</g>
<defs>
<filter id="filter0_b_167_207" x="-9.5" y="-9.5" width="59" height="75" filterUnits="userSpaceOnUse" color-interpolation-filters="sRGB">
<feFlood flood-opacity="0" result="BackgroundImageFix"/>
<feGaussianBlur in="BackgroundImageFix" stdDeviation="5"/>
<feComposite in2="SourceAlpha" operator="in" result="effect1_backgroundBlur_167_207"/>
<feBlend mode="normal" in="SourceGraphic" in2="effect1_backgroundBlur_167_207" result="shape"/>
</filter>
<linearGradient id="paint0_linear_167_207" x1="6" y1="7" x2="56.5731" y2="44.0711" gradientUnits="userSpaceOnUse">
<stop stop-color="#1E43EB"/>
<stop offset="1" stop-color="#0432FF"/>
</linearGradient>
<linearGradient id="paint1_linear_167_207" x1="0.734945" y1="1" x2="51.2497" y2="37.7166" gradientUnits="userSpaceOnUse">
<stop stop-color="white"/>
<stop offset="1" stop-color="white" stop-opacity="0.5"/>
</linearGradient>
</defs>
</svg>
