<svg width="62" height="61" viewBox="0 0 62 61" fill="none" xmlns="http://www.w3.org/2000/svg">
<path fill-rule="evenodd" clip-rule="evenodd" d="M34.2154 55.9344C49.0452 55.9344 61.0672 44.859 61.0672 31.1969C61.0672 17.5347 49.0452 6.45935 34.2154 6.45935C19.3855 6.45935 7.36353 17.5347 7.36353 31.1969C7.36353 38.0611 10.3982 44.2723 15.299 48.7539C14.9558 50.3457 14.517 52.084 14.0087 53.4501C13.4772 54.8787 12.6276 56.5509 11.8309 57.9946C11.0354 59.4361 12.1444 61.2442 13.7683 60.9729C18.5305 60.1776 22.035 58.5194 26.6483 55.0626C26.6883 55.0326 26.7267 55.0016 26.7636 54.9694C29.1296 55.5977 31.6298 55.9344 34.2154 55.9344Z" fill="url(#paint0_linear_167_169)"/>
<g filter="url(#filter0_b_167_169)">
<path fill-rule="evenodd" clip-rule="evenodd" d="M27.8518 50.4751C42.6817 50.4751 54.7037 39.3997 54.7037 25.7375C54.7037 12.0754 42.6817 1 27.8518 1C13.022 1 1 12.0754 1 25.7375C1 32.6017 4.03469 38.8129 8.93548 43.2945C8.59222 44.8864 8.15342 46.6247 7.64513 47.9909C7.11363 49.4194 6.26408 51.0917 5.46734 52.5354C4.67186 53.9768 5.78086 55.7849 7.40475 55.5137C12.1669 54.7184 15.6714 53.0601 20.2848 49.6034C20.3248 49.5734 20.3632 49.5423 20.4001 49.5101C22.7661 50.1384 25.2663 50.4751 27.8518 50.4751Z" fill="url(#paint1_linear_167_169)"/>
<path d="M8.93548 43.2945L9.42424 43.3999C9.46172 43.2262 9.40409 43.0455 9.2729 42.9256L8.93548 43.2945ZM7.64513 47.9909L7.17652 47.8165L7.64513 47.9909ZM5.46734 52.5354L5.02958 52.2938H5.02958L5.46734 52.5354ZM7.40475 55.5137L7.32238 55.0205H7.32238L7.40475 55.5137ZM20.2848 49.6034L20.5846 50.0035L20.5846 50.0035L20.2848 49.6034ZM20.4001 49.5101L20.5285 49.0268C20.3679 48.9842 20.1966 49.0241 20.0714 49.1333L20.4001 49.5101ZM54.2037 25.7375C54.2037 39.0857 42.445 49.9751 27.8518 49.9751V50.9751C42.9184 50.9751 55.2037 39.7136 55.2037 25.7375H54.2037ZM27.8518 1.5C42.445 1.5 54.2037 12.3893 54.2037 25.7375H55.2037C55.2037 11.7614 42.9184 0.5 27.8518 0.5V1.5ZM1.5 25.7375C1.5 12.3893 13.2587 1.5 27.8518 1.5V0.5C12.7852 0.5 0.5 11.7614 0.5 25.7375H1.5ZM9.2729 42.9256C4.46615 38.5299 1.5 32.4489 1.5 25.7375H0.5C0.5 32.7545 3.60322 39.0959 8.59806 43.6635L9.2729 42.9256ZM8.11375 48.1652C8.6347 46.765 9.07946 44.9989 9.42424 43.3999L8.44671 43.1892C8.10498 44.7739 7.67213 46.4844 7.17652 47.8165L8.11375 48.1652ZM5.90511 52.777C6.70523 51.3271 7.56912 49.6291 8.11375 48.1652L7.17652 47.8165C6.65814 49.2098 5.82294 50.8562 5.02958 52.2938L5.90511 52.777ZM7.32238 55.0205C6.73082 55.1193 6.23643 54.8474 5.95059 54.3983C5.66117 53.9436 5.60172 53.3267 5.90511 52.777L5.02958 52.2938C4.53748 53.1855 4.63479 54.1934 5.10697 54.9353C5.58274 55.6828 6.45479 56.1793 7.48711 56.0069L7.32238 55.0205ZM19.985 49.2032C15.4191 52.6244 11.9875 54.2414 7.32238 55.0205L7.48711 56.0069C12.3463 55.1953 15.9238 53.4958 20.5846 50.0035L19.985 49.2032ZM20.0714 49.1333C20.0439 49.1573 20.0151 49.1807 19.9849 49.2032L20.5846 50.0035C20.6345 49.9661 20.6826 49.9272 20.7288 49.8869L20.0714 49.1333ZM27.8518 49.9751C25.3098 49.9751 22.8528 49.6441 20.5285 49.0268L20.2718 49.9933C22.6795 50.6327 25.2228 50.9751 27.8518 50.9751V49.9751Z" fill="black" fill-opacity="0.9"/>
</g>
<path fill-rule="evenodd" clip-rule="evenodd" d="M20.3694 12.2072C20.2317 11.8015 19.8509 11.5286 19.4224 11.5286C18.994 11.5286 18.6131 11.8015 18.4755 12.2072L13.6698 26.3697C13.4923 26.8927 13.7724 27.4606 14.2954 27.638C14.8184 27.8155 15.3862 27.5354 15.5637 27.0124L16.9653 22.8817H21.8795L23.2812 27.0124C23.4586 27.5354 24.0265 27.8155 24.5495 27.638C25.0724 27.4606 25.3526 26.8927 25.1751 26.3697L20.3694 12.2072ZM21.2009 20.8817L19.4224 15.6406L17.644 20.8817H21.2009Z" fill="#1E43EB"/>
<path fill-rule="evenodd" clip-rule="evenodd" d="M37.7775 22.1483C37.7775 21.596 37.3298 21.1483 36.7775 21.1483C36.2252 21.1483 35.7775 21.596 35.7775 22.1483V24.3547H30.1028C29.5505 24.3547 29.1028 24.8024 29.1028 25.3547C29.1028 25.907 29.5505 26.3547 30.1028 26.3547H39.5711C38.4537 29.0236 37.3643 30.8692 36.0358 32.2868L36.0057 32.3188C35.18 31.4474 34.3182 30.3936 33.3083 29.0343C32.9789 28.591 32.3525 28.4986 31.9092 28.828C31.4659 29.1573 31.3735 29.7837 31.7029 30.2271C32.725 31.6028 33.6271 32.7118 34.5156 33.6538C33.2507 34.6123 31.7186 35.4009 29.7362 36.1819C29.2224 36.3843 28.97 36.965 29.1724 37.4788C29.3749 37.9927 29.9555 38.2451 30.4694 38.0427C32.6724 37.1747 34.4571 36.2549 35.9692 35.0576C37.2574 36.1819 38.6056 37.0526 40.2966 37.9863C40.78 38.2532 41.3884 38.0777 41.6554 37.5942C41.9223 37.1108 41.7468 36.5024 41.2633 36.2354C39.7243 35.3857 38.5491 34.6275 37.4546 33.6975L37.4951 33.6544C39.1865 31.8498 40.4639 29.5342 41.7315 26.3547H42.918C43.4703 26.3547 43.918 25.907 43.918 25.3547C43.918 24.8024 43.4703 24.3547 42.918 24.3547H41.0725C41.057 24.3544 41.0416 24.3544 41.0262 24.3547H37.7775V22.1483Z" fill="#1E43EB"/>
<defs>
<filter id="filter0_b_167_169" x="-9.5" y="-9.5" width="74.7036" height="75.5411" filterUnits="userSpaceOnUse" color-interpolation-filters="sRGB">
<feFlood flood-opacity="0" result="BackgroundImageFix"/>
<feGaussianBlur in="BackgroundImageFix" stdDeviation="5"/>
<feComposite in2="SourceAlpha" operator="in" result="effect1_backgroundBlur_167_169"/>
<feBlend mode="normal" in="SourceGraphic" in2="effect1_backgroundBlur_167_169" result="shape"/>
</filter>
<linearGradient id="paint0_linear_167_169" x1="7.36353" y1="6.45935" x2="60.9093" y2="61.3798" gradientUnits="userSpaceOnUse">
<stop stop-color="#1E43EB"/>
<stop offset="1" stop-color="#0432FF"/>
</linearGradient>
<linearGradient id="paint1_linear_167_169" x1="0.62541" y1="1" x2="54.257" y2="55.5454" gradientUnits="userSpaceOnUse">
<stop stop-color="white"/>
<stop offset="1" stop-color="white" stop-opacity="0.5"/>
</linearGradient>
</defs>
</svg>
