<svg width="68" height="61" viewBox="0 0 68 61" fill="none" xmlns="http://www.w3.org/2000/svg">
<path d="M64.4759 26.6091C64.4762 28.5072 63.7545 30.3344 62.4572 31.72C61.1599 33.1056 59.3841 33.9459 57.4901 34.0704L56.9996 34.0854L43.2283 34.0854L41.419 50.3598C41.1055 53.1813 39.7986 55.7994 37.7321 57.746C35.6655 59.6925 32.9741 60.8406 30.1388 60.9851L29.5317 61L28.5897 61C22.3741 61 16.4026 58.5809 11.9394 54.255C7.47621 49.9291 4.87177 44.036 4.67754 37.8235L4.66558 37.0759L4.66558 35.0603C4.66566 30.7613 5.8241 26.5418 8.01908 22.8454C10.2141 19.1491 13.3645 16.1125 17.139 14.0549L17.8897 13.6631L34.8878 5.16405C37.0409 4.08747 39.9208 4.88594 40.9525 7.39797C42.2295 10.5171 42.4687 13.4807 40.9166 16.534C40.5777 17.1979 40.165 17.8498 39.6786 18.4898L39.1702 19.1328L56.9996 19.1328C58.9825 19.1328 60.8841 19.9204 62.2862 21.3225C63.6883 22.7246 64.4759 24.6262 64.4759 26.6091ZM52.5139 10.1612C52.5139 10.9543 52.1988 11.715 51.638 12.2758C51.0771 12.8367 50.3165 13.1517 49.5233 13.1517C48.7302 13.1517 47.9696 12.8367 47.4087 12.2758C46.8479 11.715 46.5328 10.9543 46.5328 10.1612L46.5328 7.17069C46.5328 6.37756 46.8479 5.61691 47.4087 5.05608C47.9696 4.49525 48.7302 4.18017 49.5233 4.18017C50.3165 4.18018 51.0771 4.49525 51.638 5.05608C52.1988 5.61691 52.5139 6.37756 52.5139 7.17069L52.5139 10.1612ZM55.5044 46.0474C55.5035 46.8097 55.2117 47.5428 54.6884 48.097C54.1652 48.6513 53.45 48.9848 52.6891 49.0295C51.9282 49.0742 51.179 48.8266 50.5945 48.3374C50.0099 47.8482 49.6343 47.1542 49.5443 46.3973L49.5233 46.0474L49.5233 43.0569C49.5242 42.2947 49.8161 41.5616 50.3393 41.0073C50.8626 40.4531 51.5777 40.1195 52.3386 40.0749C53.0995 40.0302 53.8488 40.2778 54.4333 40.767C55.0178 41.2562 55.3934 41.9501 55.4835 42.707L55.5044 43.0569L55.5044 46.0474ZM66.5902 12.2755L63.5997 15.266C63.0357 15.8108 62.2803 16.1122 61.4962 16.1054C60.7121 16.0986 59.962 15.7841 59.4076 15.2296C58.8531 14.6751 58.5386 13.9251 58.5318 13.141C58.525 12.3569 58.8264 11.6015 59.3711 11.0374L62.3616 8.04692C62.9257 7.50217 63.6811 7.20074 64.4652 7.20756C65.2493 7.21437 65.9993 7.52888 66.5538 8.08335C67.1083 8.63781 67.4228 9.38787 67.4296 10.172C67.4364 10.9561 67.135 11.7115 66.5902 12.2755ZM66.5902 45.1712C66.0294 45.7318 65.2689 46.0468 64.4759 46.0468C63.683 46.0468 62.9224 45.7318 62.3616 45.1712L59.3711 42.1807C59.0855 41.9048 58.8577 41.5748 58.7009 41.21C58.5442 40.8451 58.4617 40.4527 58.4583 40.0556C58.4548 39.6586 58.5305 39.2648 58.6808 38.8972C58.8312 38.5297 59.0533 38.1958 59.3341 37.915C59.6148 37.6342 59.9487 37.4122 60.3163 37.2618C60.6838 37.1115 61.0776 37.0358 61.4747 37.0392C61.8717 37.0427 62.2642 37.1252 62.629 37.2819C62.9939 37.4387 63.3239 37.6665 63.5997 37.9521L66.5902 40.9426C67.1509 41.5034 67.4658 42.2639 67.4658 43.0569C67.4658 43.8499 67.1509 44.6104 66.5902 45.1712Z" fill="url(#paint0_linear_167_195)"/>
<g filter="url(#filter0_b_167_195)">
<path d="M60.493 23.4289C60.4933 25.327 59.7716 27.1542 58.4743 28.5398C57.177 29.9254 55.4012 30.7657 53.5072 30.8902L53.0167 30.9052L39.2454 30.9052L37.4361 47.1796C37.1226 50.0012 35.8157 52.6192 33.7492 54.5658C31.6826 56.5123 28.9912 57.6605 26.1559 57.8049L25.5488 57.8199L24.6068 57.8199C18.3912 57.8198 12.4197 55.4007 7.95649 51.0748C3.4933 46.7489 0.888865 40.8559 0.694628 34.6433L0.682669 33.8957L0.682669 31.8801C0.68275 27.5811 1.84119 23.3616 4.03617 19.6653C6.23115 15.9689 9.38155 12.9323 13.1561 10.8747L13.9067 10.4829L30.9048 1.98388C33.058 0.907293 35.9379 1.70576 36.9696 4.2178C38.2466 7.33691 38.4858 10.3005 36.9337 13.3538C36.5948 14.0177 36.1821 14.6697 35.6957 15.3096L35.1873 15.9526L53.0167 15.9526C54.9996 15.9526 56.9012 16.7403 58.3033 18.1423C59.7054 19.5444 60.493 21.4461 60.493 23.4289ZM48.531 6.98104C48.531 7.77417 48.2159 8.53482 47.6551 9.09565C47.0942 9.65648 46.3336 9.97155 45.5404 9.97155C44.7473 9.97155 43.9867 9.65648 43.4258 9.09565C42.865 8.53482 42.5499 7.77417 42.5499 6.98104L42.5499 3.99052C42.5499 3.19738 42.865 2.43673 43.4258 1.8759C43.9867 1.31507 44.7473 0.999999 45.5404 0.999999C46.3336 0.999999 47.0942 1.31507 47.6551 1.8759C48.2159 2.43673 48.531 3.19738 48.531 3.99052L48.531 6.98104ZM51.5215 42.8673C51.5206 43.6295 51.2288 44.3626 50.7055 44.9169C50.1823 45.4711 49.4671 45.8046 48.7062 45.8493C47.9453 45.894 47.1961 45.6464 46.6115 45.1572C46.027 44.668 45.6514 43.974 45.5614 43.2172L45.5404 42.8673L45.5404 39.8767C45.5413 39.1145 45.8331 38.3814 46.3564 37.8271C46.8796 37.2729 47.5948 36.9393 48.3557 36.8947C49.1166 36.85 49.8659 37.0976 50.4504 37.5868C51.0349 38.076 51.4105 38.77 51.5005 39.5269L51.5215 39.8767L51.5215 42.8673ZM62.6073 9.09533L59.6168 12.0859C59.0528 12.6306 58.2974 12.932 57.5133 12.9252C56.7292 12.9184 55.9791 12.6039 55.4246 12.0494C54.8702 11.495 54.5557 10.7449 54.5489 9.96079C54.542 9.17669 54.8435 8.42128 55.3882 7.85726L58.3787 4.86674C58.9428 4.32199 59.6982 4.02057 60.4823 4.02738C61.2664 4.03419 62.0164 4.3487 62.5709 4.90317C63.1254 5.45764 63.4399 6.20769 63.4467 6.9918C63.4535 7.7759 63.1521 8.53131 62.6073 9.09533ZM62.6073 41.991C62.0465 42.5517 61.286 42.8666 60.493 42.8666C59.7001 42.8666 58.9395 42.5517 58.3787 41.991L55.3882 39.0005C55.1026 38.7247 54.8748 38.3947 54.718 38.0298C54.5613 37.665 54.4788 37.2725 54.4754 36.8755C54.4719 36.4784 54.5476 36.0846 54.6979 35.7171C54.8483 35.3495 55.0704 35.0156 55.3511 34.7349C55.6319 34.4541 55.9658 34.232 56.3334 34.0816C56.7009 33.9313 57.0947 33.8556 57.4917 33.8591C57.8888 33.8625 58.2812 33.945 58.6461 34.1017C59.011 34.2585 59.3409 34.4863 59.6168 34.7719L62.6073 37.7624C63.168 38.3232 63.4829 39.0838 63.4829 39.8767C63.4829 40.6697 63.168 41.4302 62.6073 41.991Z" fill="url(#paint1_linear_167_195)"/>
<path d="M60.493 23.4289C60.4933 25.327 59.7716 27.1542 58.4743 28.5398C57.177 29.9254 55.4012 30.7657 53.5072 30.8902L53.0167 30.9052L39.2454 30.9052L37.4361 47.1796C37.1226 50.0012 35.8157 52.6192 33.7492 54.5658C31.6826 56.5123 28.9912 57.6605 26.1559 57.8049L25.5488 57.8199L24.6068 57.8199C18.3912 57.8198 12.4197 55.4007 7.95649 51.0748C3.4933 46.7489 0.888865 40.8559 0.694628 34.6433L0.682669 33.8957L0.682669 31.8801C0.68275 27.5811 1.84119 23.3616 4.03617 19.6653C6.23115 15.9689 9.38155 12.9323 13.1561 10.8747L13.9067 10.4829L30.9048 1.98388C33.058 0.907293 35.9379 1.70576 36.9696 4.2178C38.2466 7.33691 38.4858 10.3005 36.9337 13.3538C36.5948 14.0177 36.1821 14.6697 35.6957 15.3096L35.1873 15.9526L53.0167 15.9526C54.9996 15.9526 56.9012 16.7403 58.3033 18.1423C59.7054 19.5444 60.493 21.4461 60.493 23.4289ZM48.531 6.98104C48.531 7.77417 48.2159 8.53482 47.6551 9.09565C47.0942 9.65648 46.3336 9.97155 45.5404 9.97155C44.7473 9.97155 43.9867 9.65648 43.4258 9.09565C42.865 8.53482 42.5499 7.77417 42.5499 6.98104L42.5499 3.99052C42.5499 3.19738 42.865 2.43673 43.4258 1.8759C43.9867 1.31507 44.7473 0.999999 45.5404 0.999999C46.3336 0.999999 47.0942 1.31507 47.6551 1.8759C48.2159 2.43673 48.531 3.19738 48.531 3.99052L48.531 6.98104ZM51.5215 42.8673C51.5206 43.6295 51.2288 44.3626 50.7055 44.9169C50.1823 45.4711 49.4671 45.8046 48.7062 45.8493C47.9453 45.894 47.1961 45.6464 46.6115 45.1572C46.027 44.668 45.6514 43.974 45.5614 43.2172L45.5404 42.8673L45.5404 39.8767C45.5413 39.1145 45.8331 38.3814 46.3564 37.8271C46.8796 37.2729 47.5948 36.9393 48.3557 36.8947C49.1166 36.85 49.8659 37.0976 50.4504 37.5868C51.0349 38.076 51.4105 38.77 51.5005 39.5269L51.5215 39.8767L51.5215 42.8673ZM62.6073 9.09533L59.6168 12.0859C59.0528 12.6306 58.2974 12.932 57.5133 12.9252C56.7292 12.9184 55.9791 12.6039 55.4246 12.0494C54.8702 11.495 54.5557 10.7449 54.5489 9.96079C54.542 9.17669 54.8435 8.42128 55.3882 7.85726L58.3787 4.86674C58.9428 4.32199 59.6982 4.02057 60.4823 4.02738C61.2664 4.03419 62.0164 4.3487 62.5709 4.90317C63.1254 5.45764 63.4399 6.20769 63.4467 6.9918C63.4535 7.7759 63.1521 8.53131 62.6073 9.09533ZM62.6073 41.991C62.0465 42.5517 61.286 42.8666 60.493 42.8666C59.7001 42.8666 58.9395 42.5517 58.3787 41.991L55.3882 39.0005C55.1026 38.7247 54.8748 38.3947 54.718 38.0298C54.5613 37.665 54.4788 37.2725 54.4754 36.8755C54.4719 36.4784 54.5476 36.0846 54.6979 35.7171C54.8483 35.3495 55.0704 35.0156 55.3511 34.7349C55.6319 34.4541 55.9658 34.232 56.3334 34.0816C56.7009 33.9313 57.0947 33.8556 57.4917 33.8591C57.8888 33.8625 58.2812 33.945 58.6461 34.1017C59.011 34.2585 59.3409 34.4863 59.6168 34.7719L62.6073 37.7624C63.168 38.3232 63.4829 39.0838 63.4829 39.8767C63.4829 40.6697 63.168 41.4302 62.6073 41.991Z" stroke="black" stroke-opacity="0.9" stroke-linejoin="round"/>
</g>
<defs>
<filter id="filter0_b_167_195" x="-9.81738" y="-9.5" width="83.8003" height="77.8199" filterUnits="userSpaceOnUse" color-interpolation-filters="sRGB">
<feFlood flood-opacity="0" result="BackgroundImageFix"/>
<feGaussianBlur in="BackgroundImageFix" stdDeviation="5"/>
<feComposite in2="SourceAlpha" operator="in" result="effect1_backgroundBlur_167_195"/>
<feBlend mode="normal" in="SourceGraphic" in2="effect1_backgroundBlur_167_195" result="shape"/>
</filter>
<linearGradient id="paint0_linear_167_195" x1="67.4658" y1="4.18018" x2="9.44184" y2="65.7465" gradientUnits="userSpaceOnUse">
<stop stop-color="#1E43EB"/>
<stop offset="1" stop-color="#0432FF"/>
</linearGradient>
<linearGradient id="paint1_linear_167_195" x1="63.4829" y1="0.603674" x2="5.89633" y2="62.2246" gradientUnits="userSpaceOnUse">
<stop stop-color="white"/>
<stop offset="1" stop-color="white" stop-opacity="0.5"/>
</linearGradient>
</defs>
</svg>
