<svg width="128" height="43" viewBox="0 0 128 43" fill="none" xmlns="http://www.w3.org/2000/svg">
<path fill-rule="evenodd" clip-rule="evenodd" d="M31.5004 26.946C34.5554 27.5044 37.5162 28.5889 40.2792 30.1614L40.2171 30.3012C40.2429 30.3204 40.2637 30.3463 40.2784 30.3768C40.2928 30.4073 40.3004 30.4414 40.3004 30.476C40.3004 30.5106 40.2928 30.5447 40.2784 30.5752C40.2637 30.6057 40.2429 30.6316 40.2171 30.6507C39.5635 31.2136 38.8731 31.7199 38.1517 32.1653C36.6922 33.0671 35.1559 33.8009 33.566 34.3555C32.7668 36.8801 31.2965 39.065 29.3556 40.612C27.4148 42.1591 25.0981 42.9931 22.7216 43H22.5564C20.0322 43 17.5662 42.1448 15.478 40.5453C13.3897 38.9459 11.7754 36.6758 10.8444 34.0293H10.6585C9.3293 33.5246 8.04339 32.8851 6.81649 32.1186C6.10119 31.7049 5.41112 31.2379 4.7509 30.7206C4.70811 30.6917 4.67271 30.6507 4.64816 30.6017C4.62357 30.5527 4.61067 30.4973 4.61067 30.441C4.61067 30.3847 4.62357 30.3294 4.64816 30.2804C4.67271 30.2314 4.70811 30.1904 4.7509 30.1614C6.36592 29.2354 8.06196 28.5014 9.81161 27.9712V27.1091C7.78812 27.7153 5.83352 28.5832 3.98661 29.6954C3.9394 29.737 3.88126 29.7596 3.82137 29.7596C3.76148 29.7596 3.70332 29.737 3.65611 29.6954C2.57504 28.778 1.68681 27.6027 1.05481 26.2535C0.422822 24.9042 0.0626484 23.4142 0 21.8898C0.0680352 20.3816 0.42668 18.9082 1.05096 17.5723C1.67524 16.2363 2.55016 15.0698 3.6148 14.1541C5.56376 15.4033 7.64623 16.3664 9.81161 17.0201V16.3211C7.94273 15.7247 6.14072 14.8882 4.44104 13.828C4.40257 13.7954 4.37133 13.7532 4.3498 13.7046C4.32831 13.6561 4.31712 13.6026 4.31712 13.5484C4.31712 13.4941 4.32831 13.4406 4.3498 13.3921C4.37133 13.3435 4.40257 13.3013 4.44104 13.2687C5.16077 12.6799 5.91277 12.1428 6.69257 11.661C7.73251 11.0683 8.80949 10.5621 9.91488 10.1465V7.74659V6.86118C9.91541 6.56142 9.86139 6.26471 9.75619 5.98941C9.65095 5.71414 9.49673 5.46616 9.30308 5.26087C9.10947 5.05552 8.8805 4.89724 8.63045 4.79579C8.38037 4.6943 8.11451 4.65183 7.84929 4.67096H6.32075C6.23998 4.67195 6.16001 4.65316 6.08636 4.61588C6.01267 4.57865 5.94704 4.52374 5.894 4.45507C5.84101 4.38639 5.80182 4.30553 5.77919 4.21809C5.75657 4.13066 5.75105 4.03873 5.76304 3.94865V0.616712C5.76837 0.453932 5.82951 0.29984 5.9335 0.186853C6.03753 0.0738652 6.17636 0.0107925 6.32075 0.0109043H22.0606C22.1403 -0.00604898 22.2223 -0.00320555 22.3009 0.0192364C22.3795 0.0416784 22.4528 0.0831796 22.5157 0.140848C22.5786 0.198517 22.6297 0.270967 22.6652 0.353151C22.7008 0.435336 22.72 0.525276 22.7216 0.616712V3.94865C22.7369 4.04943 22.7301 4.15288 22.7019 4.25006C22.6738 4.34723 22.625 4.43521 22.5599 4.50633C22.4948 4.57749 22.4153 4.62965 22.3283 4.65831C22.2413 4.68701 22.1495 4.69134 22.0606 4.67096H20.5114C20.026 4.70614 19.5672 4.93344 19.2158 5.31281C18.8644 5.69214 18.6429 6.19921 18.5904 6.74467V9.33099C19.6434 8.49971 20.8808 8.01563 22.1639 7.93297V17.8356C22.164 17.8713 22.1576 17.9067 22.1449 17.9394C22.1322 17.9721 22.1136 18.0015 22.0902 18.0256C22.0669 18.0497 22.0393 18.0681 22.0093 18.0795C21.9793 18.0909 21.9476 18.0951 21.9161 18.0919C21.4062 18.0812 20.8963 18.0463 20.3884 18.0114C19.7852 17.97 19.1848 17.9288 18.5904 17.9288V18.6511C19.1321 18.6511 19.6737 18.6896 20.2362 18.7295C20.7463 18.7657 21.2735 18.8031 21.8334 18.8142C21.8714 18.8142 21.909 18.8227 21.9441 18.839C21.9792 18.8554 22.011 18.8795 22.0379 18.9097C22.0648 18.94 22.0861 18.976 22.1006 19.0156C22.1151 19.0552 22.1226 19.0976 22.1226 19.1404V25.0121C22.1226 25.0549 22.1151 25.0973 22.1006 25.1369C22.0861 25.1765 22.0648 25.2125 22.0379 25.2427C22.011 25.273 21.9792 25.297 21.9441 25.3134C21.909 25.3298 21.8714 25.3383 21.8334 25.3383C21.2526 25.3494 20.7234 25.3869 20.2122 25.4232C19.6509 25.4631 19.1113 25.5014 18.5491 25.5014V26.2004C19.6232 26.0606 20.718 26.0606 21.8127 26.0606C21.8915 26.0604 21.9673 26.094 22.0248 26.1546C22.0824 26.2152 22.1173 26.2982 22.1226 26.3868V35.4273C22.1227 35.4721 22.1146 35.5166 22.0988 35.5578C22.083 35.5989 22.0598 35.636 22.0307 35.6666C22.0017 35.6972 21.9673 35.7207 21.9298 35.7357C21.8923 35.7506 21.8524 35.7567 21.8127 35.7535C20.9915 35.6541 20.1933 35.3855 19.458 34.9613C19.9769 35.9253 20.7035 36.7257 21.5703 37.2878C22.437 37.85 23.4158 38.1558 24.4154 38.1767H24.7872C25.7526 38.1885 26.706 37.936 27.5658 37.4409C28.4256 36.9458 29.1662 36.2229 29.724 35.3341C28.5466 35.5671 27.3279 35.7768 26.0886 35.8933C26.0513 35.8903 26.0156 35.8748 25.9863 35.8486C25.9569 35.8225 25.9353 35.7869 25.9241 35.7467C25.913 35.7064 25.9128 35.6633 25.9237 35.6229C25.9347 35.5826 25.9561 35.5469 25.9853 35.5205C28.6686 33.605 30.5756 30.5749 31.2939 27.0858C31.2987 27.0609 31.3079 27.0374 31.321 27.0167C31.3342 26.996 31.351 26.9786 31.3703 26.9655C31.3897 26.9524 31.4112 26.9439 31.4336 26.9406C31.456 26.9372 31.4787 26.9391 31.5004 26.946ZM17.4957 7.88639V7.00097L17.4543 6.74467C17.4578 6.12045 17.6115 5.50902 17.8988 4.97557C18.1862 4.44211 18.5966 4.00666 19.0862 3.71564H17.8261C16.922 3.75188 16.0656 4.18269 15.4374 4.91727C14.8094 5.65186 14.4586 6.6328 14.4592 7.65338V30.5808C14.4202 33.2145 15.3021 35.7596 16.9142 37.6652C18.5262 39.5709 20.7387 40.6838 23.0728 40.763H23.2587C24.932 40.7683 26.5721 40.2366 27.9876 39.2299C29.403 38.2233 30.5354 36.7832 31.2525 35.0778H30.984C30.4017 36.3708 29.516 37.4587 28.4233 38.2229C27.3306 38.9871 26.0729 39.3983 24.7872 39.4116H24.5187C22.6561 39.4116 20.8697 38.577 19.5526 37.0913C18.2356 35.6056 17.4957 33.5906 17.4957 31.4895V7.88639ZM6.8578 1.24582V3.22634H10.4726C11.2817 3.22895 12.0702 3.51511 12.7289 4.04523C13.3876 4.57535 13.8839 5.32324 14.1494 6.18548C14.4148 5.32324 14.9112 4.57535 15.5699 4.04523C16.2286 3.51511 17.017 3.22895 17.8261 3.22634H21.5236V1.24582H6.8578ZM22.4118 41.6717H22.7216L22.7423 41.7417C24.7615 41.7541 26.7397 41.0986 28.4321 39.8563C30.1246 38.6139 31.457 36.8392 32.2647 34.7516H31.9549C31.2435 36.6376 30.0546 38.245 28.5371 39.3723C27.0196 40.4997 25.241 41.0969 23.4239 41.0893H23.238C20.769 41.0831 18.4026 39.974 16.6567 38.0046C14.9109 36.0352 13.9276 33.366 13.9221 30.5808V7.53687C13.9007 6.51896 13.5284 5.55054 12.8844 4.83714C12.2404 4.1237 11.3753 3.72142 10.4726 3.71564H9.27456C9.76414 4.00666 10.1745 4.44211 10.4619 4.97557C10.7493 5.50902 10.9029 6.12045 10.9064 6.74467V7.90968V28.6702C10.9064 32.1144 12.1179 35.4179 14.275 37.8555C16.4321 40.2931 19.3585 41.6656 22.4118 41.6717ZM31.3561 16.9734C30.6724 13.4744 28.8239 10.405 26.192 8.39892H26.2747C26.2172 8.37731 26.1696 8.33076 26.1425 8.26959C26.1154 8.20842 26.1109 8.1376 26.1301 8.0727C26.1493 8.00784 26.1905 7.95418 26.2447 7.9236C26.299 7.89301 26.3617 7.88799 26.4193 7.90961C27.9123 8.07352 29.3953 8.33806 30.8603 8.70181V7.6999V6.74461C30.8603 6.16371 30.6558 5.60663 30.2916 5.1959C29.9275 4.78513 29.4336 4.55439 28.9187 4.55439H27.2042C27.0618 4.55439 26.9252 4.49056 26.8245 4.37693C26.7237 4.26333 26.6671 4.10924 26.6671 3.94857V0.616634C26.6671 0.455964 26.7237 0.301874 26.8245 0.188263C26.9252 0.0746522 27.0618 0.0108263 27.2042 0.0108263H37.7594C37.9038 0.0107145 38.0426 0.0737874 38.1467 0.186774C38.2507 0.299762 38.312 0.453853 38.3173 0.616634V4.06507C38.312 4.22785 38.2507 4.38195 38.1467 4.49494C38.0426 4.60793 37.9038 4.67098 37.7594 4.6709H36.1896C35.7005 4.70075 35.2368 4.9257 34.8811 5.30554C34.5255 5.68538 34.3011 6.19541 34.2479 6.74461V9.70373C35.6014 10.234 36.914 10.8886 38.1724 11.6609C38.9819 12.2172 39.7487 12.8485 40.4655 13.5483C40.4954 13.5744 40.5196 13.6079 40.5363 13.6463C40.5529 13.6847 40.5616 13.7269 40.5616 13.7696C40.5616 13.8124 40.5529 13.8546 40.5363 13.8929C40.5196 13.9313 40.4954 13.9649 40.4655 13.991C37.6819 15.5626 34.6997 16.6394 31.6246 17.1831C31.5947 17.1898 31.5639 17.1897 31.5341 17.1827C31.5043 17.1757 31.476 17.162 31.4509 17.1425C31.4259 17.1229 31.4046 17.0978 31.3883 17.0688C31.372 17.0398 31.361 17.0073 31.3561 16.9734ZM33.2358 9.33092V6.74461H33.1532C33.1538 6.17727 33.2786 5.61885 33.5164 5.11894C33.7543 4.61904 34.0977 4.19301 34.5164 3.87867C34.0529 4.06886 33.6453 4.40044 33.3389 4.83652C33.0326 5.2726 32.8396 5.79601 32.7813 6.34851V9.33092H33.2358ZM27.6793 3.22626H29.7036C30.3091 3.2214 30.9016 3.42365 31.4031 3.80632C31.9046 4.18901 32.2915 4.73417 32.5128 5.36988C32.7425 4.73601 33.1343 4.19363 33.6383 3.81187C34.1423 3.43011 34.7356 3.22625 35.3427 3.22626H37.1811V1.24574H27.6793V3.22626ZM31.7283 4.8173C31.3749 4.32211 30.8895 3.96847 30.3439 3.80877C30.7944 4.11287 31.168 4.54272 31.4284 5.05696C31.6889 5.57115 31.8276 6.15239 31.8312 6.74461V7.90961V9.00474L32.3063 9.14454V6.55818C32.2844 5.92294 32.0817 5.31249 31.7283 4.8173ZM83.0582 21.1208H80.0217L80.0008 21.1674H77.9354V20.2121L79.2571 19.7694V11.0318L78.0591 10.6357L78.1832 9.6105H82.7688C83.5972 9.59167 84.42 9.76617 85.1856 10.1231C85.7935 10.4105 86.3318 10.8579 86.7555 11.4279C87.1372 12.0101 87.4047 12.6773 87.5405 13.3851C87.7039 14.053 87.7871 14.7427 87.7882 15.4356C87.8068 15.8236 87.8068 16.2125 87.7882 16.6006C87.7258 17.0268 87.6362 17.4473 87.5197 17.8588C87.399 18.3026 87.225 18.7259 87.0033 19.117C86.7752 19.5455 86.4733 19.9179 86.1151 20.2121C85.7334 20.5546 85.2995 20.8152 84.8346 20.981C84.2543 21.1447 83.6528 21.1921 83.0582 21.1208ZM82.2732 11.2881H81.4883V19.7228H82.0667H82.6447C83.1138 19.7329 83.5764 19.6044 83.9876 19.35C84.3538 19.1266 84.6606 18.7968 84.8758 18.3947C85.1111 17.956 85.2791 17.4754 85.3714 16.9734C85.4625 16.4278 85.511 15.8742 85.5159 15.3191C85.5253 14.639 85.4345 13.9618 85.2477 13.3152C85.0964 12.845 84.8486 12.4218 84.5244 12.0803C84.2392 11.7782 83.8911 11.5619 83.5125 11.4512C83.1073 11.3369 82.6908 11.2821 82.2732 11.2881ZM75.2501 17.2764V11.0785L76.6755 10.6824V9.65722H75.2709H72.5234V10.6358L73.8043 11.1018V16.5308C73.847 16.9488 73.847 17.371 73.8043 17.789C73.7509 18.1471 73.631 18.4885 73.4532 18.7909C73.2724 19.0876 73.022 19.3216 72.7299 19.4666C72.3785 19.6373 71.9972 19.717 71.6147 19.6996C71.1983 19.7227 70.7825 19.6432 70.3959 19.4666C70.1069 19.3388 69.8561 19.1205 69.673 18.8375C69.5069 18.5645 69.3942 18.2548 69.3424 17.9288C69.3193 17.5642 69.3193 17.1982 69.3424 16.8337V11.1018L70.7265 10.7057V9.68051C70.1901 9.72345 69.6518 9.72345 69.1154 9.68051H65.8724V10.6358L67.1941 11.1018V17.5094C67.1737 18.1918 67.3163 18.868 67.6076 19.4666C67.8489 19.9465 68.189 20.354 68.5991 20.6549C69.0053 20.9574 69.4623 21.1635 69.9416 21.2607C70.3827 21.3688 70.8328 21.4235 71.2841 21.4238C71.7903 21.4262 72.2957 21.3716 72.792 21.2607C73.2966 21.1746 73.777 20.9594 74.1966 20.6316C74.6267 20.3133 74.9811 19.8814 75.2297 19.3734C75.51 18.7202 75.6514 18.0022 75.6427 17.2764H75.2501ZM75.7664 22.3093C75.665 22.4213 75.5852 22.5556 75.5319 22.704C75.4785 22.8523 75.4532 23.0114 75.4566 23.1714C75.4539 23.4825 75.5576 23.7829 75.746 24.0102C75.8477 24.1286 75.9699 24.2227 76.1046 24.287C76.2397 24.3512 76.3845 24.3843 76.5309 24.3843C76.6769 24.3843 76.8218 24.3512 76.9569 24.287C77.0915 24.2227 77.2137 24.1286 77.3159 24.0102C77.4154 23.9018 77.4944 23.7714 77.5478 23.6271C77.6011 23.4828 77.6276 23.3277 77.6257 23.1714C77.6291 23.0114 77.6034 22.8523 77.55 22.704C77.4971 22.5556 77.4173 22.4213 77.3159 22.3093C77.2141 22.192 77.0916 22.1003 76.9565 22.04C76.8211 21.9798 76.6762 21.9524 76.5309 21.9598C76.3891 21.9571 76.2483 21.9866 76.1171 22.0467C75.9858 22.1067 75.8667 22.1961 75.7664 22.3093ZM72.2015 26.9974C72.2941 27.3107 72.3267 27.6426 72.2968 27.9712V33.1671L73.3503 33.6565V34.4254H69.5493V33.6798L70.6649 33.2371V28.8799C70.6891 28.4544 70.5953 28.0308 70.3963 27.6683C70.2729 27.522 70.1209 27.4101 69.9522 27.3413C69.7838 27.2726 69.6034 27.2489 69.4256 27.2722C69.109 27.2815 68.7957 27.3443 68.4961 27.4586C68.1421 27.5847 67.8024 27.7567 67.4838 27.9712V30.2547V33.1671L68.5994 33.54V34.3089H64.7367V33.5866L65.914 33.0973V27.0625L64.8604 26.7596V26.014L65.9348 25.8276L67.0295 25.6412H67.1532L67.5251 26.9693L68.6406 25.781C68.9051 25.7082 69.1744 25.6615 69.446 25.6412H70.231C70.7791 25.5938 71.3235 25.7763 71.7596 26.1538C71.9582 26.3965 72.1088 26.684 72.2015 26.9974ZM62.5465 25.6412V33.074L62.6085 33.0507L63.1869 33.2138L63.7861 33.3536V34.0992L61.4725 34.4487H61.3484L60.9974 33.1905C60.6051 33.6099 60.2332 34.006 59.8614 34.3555L59.0764 34.5186H58.3123C57.749 34.5559 57.1926 34.3659 56.7424 33.9827C56.54 33.742 56.3857 33.4553 56.2896 33.1419C56.1931 32.8285 56.1576 32.4955 56.1844 32.1653V27.1557L55.6476 26.9926L55.1313 26.8295V26.0839L57.6923 25.7111H57.8164V28.5538V31.3964C57.799 31.836 57.892 32.2722 58.0849 32.6546C58.2071 32.7962 58.3558 32.9053 58.5204 32.9738C58.6845 33.0423 58.8604 33.0686 59.0352 33.0507C59.3386 33.0465 59.6389 32.9834 59.9234 32.8643C60.2941 32.7392 60.6482 32.559 60.9769 32.3284V27.0625L59.9026 26.7596V26.014L62.4019 25.6412H62.5465ZM77.3986 25.6412V29.4158H77.3778V33.1672L78.5759 33.5866C78.5868 33.7106 78.5868 33.8354 78.5759 33.9594V34.3089H74.5687V33.9594V33.5866L75.7667 33.0973V27.1324L75.2295 26.9693L74.7132 26.8062V26.0606L77.2541 25.6412H77.3986ZM86.3835 25.7577H85.5157H84.6483H84.1111V26.5499L85.0613 26.8994C84.9963 27.0579 84.9411 27.2214 84.896 27.3887L84.5862 28.2975L84.2352 29.4625L84.2261 29.4914L84.226 29.4918C84.105 29.8781 83.9843 30.2633 83.8633 30.6042C83.7853 30.824 83.7237 31.0345 83.6683 31.2243L83.6682 31.2245L83.668 31.2251L83.6679 31.2254C83.6353 31.337 83.6048 31.4414 83.5743 31.5362L83.4294 32.0255L81.9628 27.6217C81.8512 27.2857 81.7547 26.9435 81.6738 26.5965C81.6106 26.289 81.5626 25.9779 81.5293 25.6645L78.9267 25.781V26.5732L79.7321 26.8761C79.7321 26.8761 79.8766 27.2722 80.0419 27.645L80.5582 29.0197L81.1779 30.6973C81.4052 31.2799 81.6118 31.8391 81.7979 32.3517C81.9013 32.6371 82.0047 32.9081 82.1011 33.1606L82.1013 33.1613L82.1024 33.164L82.1028 33.165C82.1788 33.3643 82.2505 33.5521 82.3142 33.7264C82.4039 33.9893 82.5075 34.2461 82.6241 34.4953L83.5743 34.2623L85.6398 28.9964C85.8308 28.4836 86.0517 27.9854 86.3006 27.5052C86.5136 27.0922 86.7939 26.7285 87.1268 26.4334V25.6645H86.5692L86.3835 25.7577ZM92.601 25.9906C92.9868 26.2176 93.325 26.5354 93.5925 26.9227V26.946C93.8209 27.3184 93.9825 27.738 94.0676 28.1809C94.1497 28.6175 94.1909 29.0626 94.1913 29.509L94.0676 29.6954L89.0685 29.9983C89.0625 30.4527 89.1041 30.9064 89.1926 31.3497C89.2554 31.7126 89.3893 32.055 89.5849 32.3516C89.7831 32.6219 90.0388 32.8305 90.3286 32.9574C90.6959 33.0882 91.0795 33.1511 91.4646 33.1438C91.7774 33.1417 92.0888 33.1026 92.3944 33.0273C92.8056 32.9463 93.2074 32.8134 93.5925 32.6312L93.8194 33.5166C93.3946 33.8431 92.9278 34.0945 92.4357 34.2622C91.9148 34.4496 91.3712 34.5439 90.8245 34.5418C90.262 34.5496 89.7029 34.4471 89.1718 34.2389C88.7364 34.0608 88.3464 33.7648 88.0358 33.3768C87.7374 32.9791 87.5251 32.5084 87.4162 32.0021C87.2687 31.4111 87.199 30.7987 87.2096 30.1847C87.2123 29.6282 87.2679 29.0736 87.3749 28.5304C87.4865 28.0125 87.6825 27.5226 87.9533 27.0858C88.2598 26.6473 88.6475 26.2895 89.0893 26.0373C89.6545 25.7552 90.2688 25.6199 90.8866 25.6411C91.4744 25.5992 92.063 25.7191 92.601 25.9906ZM89.0893 28.4838C89.0602 28.7468 89.0602 29.0129 89.0893 29.276L92.105 28.9032C92.1255 28.6707 92.1255 28.4366 92.105 28.2042C92.0706 27.9747 92.001 27.7539 91.8985 27.5517C91.7914 27.3575 91.642 27.1972 91.4646 27.0858C91.2414 26.9558 90.9929 26.8916 90.7417 26.8993C90.4398 26.8936 90.1413 26.9737 89.8743 27.1324C89.6621 27.2853 89.485 27.493 89.3579 27.7382C89.2308 27.9672 89.1396 28.2195 89.0893 28.4838ZM100.994 25.4781C100.739 25.4789 100.485 25.5261 100.244 25.6179C100.009 25.7149 99.7809 25.8317 99.5619 25.9674L98.9631 26.4334L98.4467 26.946L98.1573 25.6412H98.0128L95.7405 26.0606V26.7829L96.794 27.0858V33.0973L95.5755 33.5866V34.3089H99.5827V33.5866L98.3847 33.1672V27.5751L100.904 27.7848C101.072 27.5371 101.204 27.2621 101.297 26.9693C101.378 26.6911 101.42 26.4002 101.421 26.1072C101.432 26.0186 101.425 25.9283 101.399 25.8435C101.374 25.7586 101.332 25.6814 101.276 25.6179C101.236 25.5715 101.188 25.5352 101.134 25.5111C101.09 25.4911 101.043 25.4799 100.996 25.4781L100.995 25.4781C100.986 25.4777 100.976 25.4777 100.966 25.4781H100.994ZM106.689 29.742C106.951 29.8899 107.195 30.078 107.412 30.3012C107.635 30.4759 107.819 30.7073 107.949 30.9769C108.059 31.2876 108.108 31.6214 108.093 31.9555C108.093 32.3079 108.03 32.6566 107.907 32.9807C107.775 33.307 107.568 33.5882 107.308 33.7962C107.004 34.0513 106.661 34.2409 106.296 34.3554C105.816 34.4832 105.323 34.5458 104.83 34.5418C104.344 34.5464 103.859 34.4918 103.384 34.3787C102.987 34.2993 102.603 34.1499 102.248 33.936L102.124 31.4662H102.392H102.661L103.322 33.0273C103.554 33.1889 103.804 33.3143 104.065 33.4001C104.312 33.4296 104.562 33.4296 104.809 33.4001C105.194 33.4249 105.579 33.3366 105.924 33.1438C106.065 33.059 106.18 32.9303 106.257 32.7733C106.334 32.6162 106.369 32.4374 106.358 32.2584C106.361 32.063 106.318 31.8702 106.234 31.6992C106.156 31.5297 106.033 31.3914 105.883 31.3031C105.723 31.1709 105.55 31.0613 105.367 30.9769L104.747 30.6507L103.859 30.208C103.586 30.0739 103.329 29.9017 103.095 29.6954C102.873 29.5117 102.684 29.2825 102.537 29.0197C102.39 28.7296 102.318 28.3984 102.33 28.0643C102.328 27.7539 102.377 27.4457 102.475 27.1556C102.587 26.8611 102.757 26.5985 102.971 26.3867C103.219 26.1399 103.517 25.9641 103.838 25.8741C104.266 25.7239 104.712 25.653 105.16 25.6645C105.562 25.6694 105.964 25.7162 106.358 25.8042C106.799 25.8741 107.226 26.0319 107.618 26.2702V27.4119V28.5537H107.04L106.482 27.1323C106.26 26.9811 106.015 26.8783 105.759 26.8295C105.567 26.8031 105.373 26.8031 105.181 26.8295C104.895 26.819 104.614 26.9086 104.375 27.0858C104.273 27.1658 104.19 27.2744 104.136 27.401C104.082 27.5275 104.057 27.6677 104.065 27.808C104.033 27.9455 104.033 28.09 104.065 28.2275C104.147 28.3663 104.252 28.4852 104.375 28.5769C104.553 28.6962 104.74 28.7975 104.933 28.8799L105.718 29.2527L106.689 29.742ZM111.067 24.3829C111.354 24.383 111.63 24.2561 111.834 24.0295C112.039 23.8029 112.157 23.4948 112.162 23.1713C112.166 23.0113 112.14 22.8522 112.087 22.7038C112.034 22.5555 111.954 22.4212 111.852 22.3092C111.749 22.1942 111.627 22.1039 111.491 22.0439C111.356 21.9838 111.212 21.9551 111.067 21.9597C110.926 21.9565 110.784 21.9857 110.653 22.0454C110.522 22.1052 110.402 22.1944 110.301 22.3075C110.201 22.4207 110.122 22.5555 110.069 22.7039C110.016 22.8524 109.99 23.0113 109.993 23.1713C109.987 23.3261 110.01 23.4806 110.06 23.625C110.11 23.7694 110.185 23.9005 110.282 24.0101C110.379 24.1369 110.5 24.2366 110.636 24.3013C110.772 24.366 110.92 24.3939 111.067 24.3829ZM111.935 25.6645V29.4158V33.1672L113.113 33.5866V34.3089H109.105C109.096 34.1926 109.096 34.0757 109.105 33.9594V33.5866L110.324 33.0973V27.1557L109.787 26.9926L109.271 26.8295V26.0839L111.811 25.6645H111.935ZM119.041 32.9108C118.77 32.9955 118.494 33.0578 118.214 33.0972C118.001 33.1201 117.787 33.1201 117.574 33.0972C117.42 33.1234 117.263 33.1075 117.115 33.0507C116.968 32.9939 116.835 32.898 116.727 32.771C116.545 32.4967 116.457 32.1574 116.479 31.8157V26.8061H118.752V25.8275H116.479V23.6373L115.612 23.9402L115.054 25.7809L114.455 26.0372L113.877 26.2702V26.9226H114.971V32.072C114.935 32.4593 114.935 32.8497 114.971 33.237C115.017 33.5294 115.131 33.8028 115.302 34.0292C115.466 34.2464 115.681 34.4078 115.922 34.4952C116.251 34.5977 116.592 34.6448 116.933 34.635C117.773 34.6302 118.6 34.4069 119.35 33.9826L119.226 33.5166L119.103 33.0273L119.041 32.9108ZM127.819 25.7576C127.809 25.8816 127.809 26.0064 127.819 26.1304L127.778 26.2236V26.5964C127.44 26.8862 127.159 27.2509 126.951 27.6682C126.703 28.1485 126.482 28.6466 126.291 29.1595L125.051 32.5147L123.791 35.8466C123.549 36.5312 123.191 37.1563 122.738 37.6874C122.539 37.9161 122.301 38.0961 122.038 38.2164C121.775 38.3367 121.493 38.3945 121.209 38.3863C120.86 38.3924 120.516 38.2875 120.218 38.0835C120.088 38.0111 119.98 37.8976 119.906 37.7568C119.833 37.6161 119.798 37.4543 119.805 37.2913C119.807 37.137 119.837 36.9849 119.894 36.8445C119.951 36.7041 120.033 36.5786 120.135 36.4757C120.251 36.273 120.416 36.1115 120.61 36.0097L121.974 36.8718C122.128 36.8305 122.274 36.7595 122.407 36.6621C122.532 36.5559 122.644 36.4304 122.738 36.2893C122.835 36.1608 122.917 36.02 122.986 35.8699L123.151 35.4505L123.523 34.3088H122.965C122.759 33.7032 122.542 33.0859 122.325 32.4687L122.324 32.4676L122.324 32.4674L122.324 32.4672L122.324 32.467L122.324 32.4668L122.324 32.4666L122.324 32.4664L122.324 32.4662L122.324 32.466L122.324 32.4659C122.107 31.8491 121.89 31.2324 121.684 30.6274C121.283 29.4501 120.862 28.2507 120.441 27.0508L120.404 26.946L119.598 26.6197V25.8508H122.201C122.228 26.1637 122.269 26.4748 122.325 26.7828C122.388 27.1478 122.478 27.5063 122.593 27.8547C122.82 28.6934 123.089 29.6021 123.357 30.3012C123.624 30.9951 123.87 31.8039 124.116 32.6134L124.117 32.6138L124.122 32.6312L125.051 29.7187C125.279 29.0181 125.495 28.3175 125.708 27.6261C125.785 27.3747 125.862 27.1245 125.94 26.876L124.989 26.5032V26.1304C125 26.0065 125 25.8816 124.989 25.7576H127.819ZM88.5731 20.189V21.1676H92.9521V20.1191L91.4647 19.7696V12.6164L93.5305 15.8085L97.3724 21.4472L98.5292 21.1676V20.0958V18.2784V16.1114V13.9445V12.1504V11.1019L100.058 10.6825V9.65726H95.9886V10.6358L97.4136 11.0553L97.5377 17.2065L95.6992 14.4804L93.0554 10.6825C92.9445 10.5392 92.8477 10.3829 92.766 10.2165C92.6567 10.0228 92.5602 9.82035 92.477 9.61063H91.1136H88.8621L88.8209 10.6358L90.3495 11.1019L90.1634 19.6997L88.5731 20.189ZM55.0486 21.1907V20.1422L56.3499 19.7694V11.1716C55.9346 11.0585 55.5271 10.9105 55.1315 10.7289L55.3792 9.6338C56.8788 9.88654 58.4033 9.88654 59.9028 9.6338C59.9628 9.6338 60.0337 9.63212 60.1139 9.63022C61.1106 9.60665 63.5292 9.54945 63.9308 12.2667C64.1048 13.0722 63.9981 13.9223 63.6331 14.6419C63.268 15.3615 62.6722 15.8957 61.9686 16.1346L65.0255 20.5616L64.8398 21.2606L62.9805 21.7499L59.8824 16.5074C59.4292 16.5153 58.9775 16.4526 58.5394 16.3209V19.7461L60.0061 20.1422V21.1907H57.5067H55.0486ZM58.6427 14.9463C60.9563 15.4822 61.5347 14.2472 61.5347 13.1522V13.1055C61.5347 11.9871 60.9355 11.0551 58.8701 11.2648H58.6427V14.9463ZM30.3643 26.7363C27.9384 26.3042 25.4872 26.0783 23.0314 26.0606C22.9547 26.0606 22.8811 26.095 22.8269 26.1561C22.7727 26.2173 22.7422 26.3003 22.7422 26.3868V35.4972C22.7417 35.5443 22.7504 35.5909 22.7674 35.6338C22.7845 35.6768 22.8095 35.7151 22.8409 35.746C22.8723 35.7771 22.9093 35.8 22.9493 35.8133C22.9893 35.8267 23.0314 35.8301 23.0727 35.8234C26.4809 35.4273 29.3728 31.9556 30.6121 27.1324C30.6211 27.0878 30.6217 27.0416 30.6138 26.9968C30.6059 26.9519 30.5897 26.9095 30.5664 26.8721C30.543 26.8348 30.5129 26.8034 30.4781 26.78C30.4433 26.7566 30.4045 26.7417 30.3643 26.7363ZM22.9488 18.0918C25.5716 18.0763 28.1893 17.827 30.7774 17.3462C29.6 12.0105 26.4603 8.14259 22.7422 8.02608V17.8588C22.7422 17.9206 22.764 17.9799 22.8027 18.0235C22.8414 18.0673 22.894 18.0918 22.9488 18.0918ZM41.2604 14.284C41.3448 14.284 41.4273 14.3118 41.498 14.3639V14.4804C42.5012 15.393 43.3202 16.5362 43.9009 17.834C44.4812 19.1317 44.8099 20.5541 44.8648 22.0064C44.8092 23.5151 44.4581 24.9912 43.8366 26.3287C43.2151 27.6662 42.3389 28.8319 41.2707 29.7421C41.2056 29.7987 41.1258 29.8295 41.0437 29.8295C40.9612 29.8295 40.8814 29.7987 40.8163 29.7421C38.0185 28.0872 35.0072 26.9392 31.8929 26.3402C31.7866 26.3175 31.6924 26.2487 31.6306 26.1485C31.5688 26.0482 31.5443 25.9247 31.5624 25.8043C31.7899 24.5312 31.9006 23.2351 31.8929 21.9365C31.8995 20.7569 31.8096 19.5791 31.6244 18.4182C31.6063 18.2978 31.6308 18.1742 31.6926 18.074C31.7544 17.9738 31.8486 17.905 31.9549 17.8823C35.1257 17.2676 38.1876 16.0796 41.0229 14.3639C41.0936 14.3118 41.1761 14.284 41.2604 14.284ZM23.0315 25.3382C25.5563 25.3637 28.0762 25.5973 30.5709 26.0372C30.6077 26.0474 30.6459 26.0487 30.6832 26.041C30.7205 26.0334 30.7559 26.0169 30.7871 25.9927C30.8183 25.9685 30.8446 25.9371 30.8643 25.9006C30.884 25.8641 30.8967 25.8233 30.9014 25.7809C31.1359 24.5008 31.2535 23.197 31.2526 21.8898C31.2582 20.7025 31.1684 19.5171 30.984 18.3482C30.969 18.2655 30.9262 18.1927 30.8646 18.1449C30.8029 18.0971 30.7273 18.0781 30.6535 18.0919C28.1386 18.5398 25.5981 18.7812 23.0521 18.8142C23.0141 18.8142 22.9765 18.8226 22.9414 18.839C22.9064 18.8554 22.8745 18.8794 22.8476 18.9097C22.8208 18.94 22.7995 18.9759 22.7849 19.0155C22.7704 19.0551 22.7629 19.0975 22.7629 19.1404V25.012C22.7629 25.0985 22.7934 25.1815 22.8476 25.2427C22.9019 25.3039 22.9754 25.3382 23.0521 25.3382H23.0315Z" fill="#5166C5"/>
</svg>
