<svg width="31" height="30" viewBox="0 0 31 30" fill="none" xmlns="http://www.w3.org/2000/svg">
<g clip-path="url(#clip0_167_514)">
<path fill-rule="evenodd" clip-rule="evenodd" d="M30.1428 15.002C30.1428 23.2862 23.4271 30.002 15.1428 30.002C6.85855 30.002 0.142822 23.2862 0.142822 15.002C0.142822 6.71768 6.85855 0.00195312 15.1428 0.00195312C23.4271 0.00195312 30.1428 6.71768 30.1428 15.002ZM15.6803 11.0756C14.2214 11.6825 11.3055 12.9385 6.93271 14.8436C6.22263 15.126 5.85067 15.4022 5.81681 15.6723C5.75957 16.1288 6.33123 16.3086 7.10968 16.5533C7.21557 16.5867 7.3253 16.6212 7.43777 16.6577C8.20365 16.9067 9.23387 17.198 9.76946 17.2095C10.2553 17.22 10.7975 17.0197 11.3961 16.6086C15.4818 13.8507 17.5908 12.4567 17.7232 12.4267C17.8167 12.4055 17.9461 12.3788 18.0338 12.4568C18.1214 12.5347 18.1129 12.6823 18.1036 12.722C18.0469 12.9633 15.8029 15.0496 14.6417 16.1292C14.2797 16.4657 14.0229 16.7045 13.9704 16.759C13.8528 16.8812 13.7329 16.9967 13.6178 17.1077C12.9063 17.7936 12.3727 18.308 13.6473 19.148C14.2599 19.5516 14.7501 19.8853 15.2391 20.2183C15.7731 20.5821 16.3057 20.9448 16.9948 21.3966C17.1704 21.5117 17.3381 21.6312 17.5014 21.7476C18.1229 22.1907 18.6813 22.5887 19.3711 22.5252C19.7719 22.4883 20.1859 22.1115 20.3962 20.9875C20.8931 18.331 21.8698 12.5751 22.0956 10.2032C22.1154 9.99537 22.0906 9.72942 22.0706 9.61268C22.0506 9.49593 22.0088 9.32959 21.8571 9.20645C21.6773 9.06063 21.3999 9.02988 21.2758 9.03205C20.7116 9.042 19.8461 9.34298 15.6803 11.0756Z" fill="black"/>
</g>
<defs>
<clipPath id="clip0_167_514">
<rect width="30" height="30" fill="white" transform="translate(0.142822 0.00195312)"/>
</clipPath>
</defs>
</svg>
