<svg width="31" height="30" viewBox="0 0 31 30" fill="none" xmlns="http://www.w3.org/2000/svg">
<path d="M26.5714 0.00195312H3.71425C1.74497 0.00195312 0.142822 1.6041 0.142822 3.57338V26.4305C0.142822 28.3998 1.74497 30.002 3.71425 30.002H26.5714C28.5407 30.002 30.1428 28.3998 30.1428 26.4305V3.57338C30.1428 1.6041 28.5407 0.00195312 26.5714 0.00195312ZM23.7185 13.0898C23.5564 13.1048 23.3921 13.1148 23.2257 13.1148C21.3521 13.1148 19.7057 12.1512 18.7478 10.6948C18.7478 14.5155 18.7478 18.8627 18.7478 18.9355C18.7478 22.2991 16.0207 25.0262 12.6571 25.0262C9.29354 25.0262 6.56639 22.2991 6.56639 18.9355C6.56639 15.572 9.29354 12.8448 12.6571 12.8448C12.7843 12.8448 12.9085 12.8562 13.0335 12.8641V15.8655C12.9085 15.8505 12.7857 15.8277 12.6571 15.8277C10.94 15.8277 9.54854 17.2191 9.54854 18.9362C9.54854 20.6534 10.94 22.0448 12.6571 22.0448C14.3743 22.0448 15.8907 20.692 15.8907 18.9748C15.8907 18.907 15.9207 4.9791 15.9207 4.9791H18.7893C19.0593 7.5441 21.13 9.56838 23.7185 9.7541V13.0898Z" fill="black" fill-opacity="0.9"/>
</svg>
