<svg width="31" height="30" viewBox="0 0 31 30" fill="none" xmlns="http://www.w3.org/2000/svg">
<path fill-rule="evenodd" clip-rule="evenodd" d="M2.24282 2.10195C0.142822 4.22195 0.142822 7.61195 0.142822 14.402V15.602C0.142822 22.382 0.142822 25.772 2.24282 27.902C4.36282 30.002 7.75282 30.002 14.5428 30.002H15.7428C22.5228 30.002 25.9128 30.002 28.0428 27.902C30.1428 25.782 30.1428 22.392 30.1428 15.602V14.402C30.1428 7.62195 30.1428 4.23195 28.0428 2.10195C25.9229 0.0019533 22.5329 0.00195312 15.7428 0.00195312H14.5428C7.76282 0.00195312 4.37282 0.0019533 2.24282 2.10195ZM5.20282 9.13196C5.36282 16.932 9.26282 21.612 16.1028 21.612H16.5029V17.1519C19.0128 17.402 20.9129 19.242 21.6728 21.612H25.2228C24.8588 20.2653 24.2132 19.011 23.3289 17.9319C22.4447 16.853 21.3417 15.9737 20.0928 15.3519C21.212 14.6705 22.1786 13.7654 22.9322 12.6935C23.6858 11.6216 24.2103 10.4057 24.4728 9.12195H21.2528C20.5529 11.602 18.4728 13.8519 16.5029 14.0619V9.13196H13.2728V17.772C11.2728 17.2719 8.75282 14.852 8.64281 9.13196H5.20282Z" fill="black" fill-opacity="0.9"/>
</svg>
