<svg width="43" height="30" viewBox="0 0 43 30" fill="none" xmlns="http://www.w3.org/2000/svg">
<path fill-rule="evenodd" clip-rule="evenodd" d="M21.6688 0.00195312C22.8862 0.00407698 35.1397 0.0465541 38.3134 0.896096C40.1584 1.38581 41.6091 2.83365 42.1041 4.68603C42.964 7.89513 42.9984 14.4401 42.9998 14.9585V15.0241C42.9984 15.5441 42.964 22.1087 42.1041 25.3178C41.6091 27.1702 40.1584 28.618 38.3134 29.1077C35.0395 29.9841 22.1032 30.0016 21.5871 30.002H21.5553C21.0391 30.0016 8.1007 29.9841 4.82468 29.1077C2.98182 28.618 1.52896 27.1702 1.0361 25.3178C0.178264 22.1087 0.143951 15.5441 0.142578 15.0241V14.9585C0.143951 14.4401 0.178264 7.89513 1.0361 4.68603C1.52896 2.83365 2.98182 1.38581 4.82468 0.896096C8.00041 0.0465541 20.256 0.00407698 21.4736 0.00195312H21.6688ZM17.1869 8.6676V21.3362L28.3898 14.9913L17.1869 8.6676Z" fill="black" fill-opacity="0.9"/>
</svg>
